<svg aria-hidden="true" style="position: absolute; width: 0; height: 0; overflow: hidden;" version="1.1" xmlns="http://www.w3.org/2000/svg" xmlns:xlink="http://www.w3.org/1999/xlink">
<defs>
<symbol id="burger" viewBox="0 0 32 32">
<path d="M26.733 14h-21.467c-0.7 0-1.267 0.425-1.267 0.95v0.1c0 0.525 0.567 0.95 1.267 0.95h21.467c0.7 0 1.267-0.425 1.267-0.95v-0.1c0-0.525-0.567-0.95-1.267-0.95z"></path>
<path d="M26.733 20h-21.467c-0.7 0-1.267 0.425-1.267 0.95v0.1c0 0.525 0.567 0.95 1.267 0.95h21.467c0.7 0 1.267-0.425 1.267-0.95v-0.1c0-0.525-0.567-0.95-1.267-0.95z"></path>
<path d="M26.733 8h-21.467c-0.7 0-1.267 0.425-1.267 0.95v0.1c0 0.525 0.567 0.95 1.267 0.95h21.467c0.7 0 1.267-0.425 1.267-0.95v-0.1c0-0.525-0.567-0.95-1.267-0.95z"></path>
</symbol>
<symbol id="close-icon" viewBox="0 0 32 32">
<path d="M28.614 1.13l-12.614 12.614-12.614-12.614c-0.303-0.278-0.702-0.427-1.113-0.418s-0.803 0.176-1.094 0.467c-0.291 0.291-0.458 0.683-0.467 1.094s0.141 0.81 0.418 1.113l12.608 12.614-12.611 12.611c-0.154 0.147-0.277 0.323-0.362 0.518s-0.13 0.405-0.133 0.618 0.037 0.424 0.117 0.621c0.080 0.197 0.199 0.376 0.349 0.527s0.329 0.27 0.526 0.35 0.408 0.121 0.621 0.118c0.213-0.002 0.423-0.047 0.618-0.132s0.372-0.208 0.519-0.361l12.618-12.611 12.614 12.614c0.303 0.278 0.702 0.428 1.113 0.418s0.803-0.176 1.094-0.467c0.291-0.291 0.458-0.683 0.467-1.094s-0.141-0.81-0.418-1.113l-12.614-12.614 12.614-12.618c0.154-0.147 0.277-0.323 0.362-0.518s0.13-0.405 0.133-0.618c0.003-0.213-0.037-0.424-0.117-0.621s-0.199-0.376-0.349-0.527c-0.15-0.151-0.329-0.27-0.526-0.35s-0.408-0.121-0.621-0.118-0.423 0.047-0.618 0.132c-0.195 0.085-0.372 0.208-0.519 0.362v0.003z"></path>
</symbol>
<symbol id="logo" viewBox="0 0 34 32">
<path d="M17.413 14.169c1.635-4.384-1.751-6.784-3.995-8.362-0.429-0.322-0.858-0.623-1.206-0.899-0.621-0.518-1.079-1.201-1.318-1.969s-0.251-1.587-0.033-2.361c0.022-0.081 0.022-0.166-0.002-0.247s-0.069-0.153-0.131-0.21-0.14-0.096-0.223-0.112c-0.083-0.017-0.169-0.010-0.249 0.018-0.756 0.295-1.458 0.709-2.081 1.225-0.598 0.456-1.083 1.041-1.417 1.711s-0.508 1.406-0.51 2.152c-0.423 0.33-0.797 0.716-1.111 1.149-0.577 0.778-0.866 1.729-0.819 2.693-0.687 0.624-1.199 1.413-1.486 2.291s-0.338 1.814-0.149 2.717c-0.273 0.163-0.485 0.411-0.602 0.704s-0.134 0.617-0.047 0.921c0.087 0.304 0.272 0.571 0.527 0.761s0.567 0.291 0.886 0.289h0.030v2.493c0 0.253 0.102 0.496 0.283 0.675s0.427 0.279 0.683 0.279h0.751l1.223 10.473c0.025 0.233 0.137 0.449 0.314 0.605s0.406 0.243 0.643 0.243h5.089c0.237-0.001 0.466-0.087 0.644-0.244s0.29-0.372 0.317-0.605l1.223-10.473h0.751c0.256 0 0.502-0.1 0.683-0.279s0.283-0.422 0.283-0.675v-2.493h0.030c0.388 0 0.76-0.152 1.035-0.423s0.428-0.639 0.428-1.022c0.002-0.191-0.035-0.381-0.109-0.558s-0.183-0.338-0.32-0.472l-0.013 0.004zM6.399 6.214c0.618 2.294 3.003 3.197 5.179 4.003 0.059 0.036 0.124 0.058 0.192 0.066s0.137 0 0.202-0.021c0.065-0.022 0.124-0.057 0.174-0.104s0.088-0.104 0.113-0.168c0.025-0.063 0.035-0.131 0.030-0.199s-0.025-0.133-0.058-0.193c-0.034-0.059-0.080-0.11-0.136-0.15s-0.12-0.066-0.187-0.079c-2.343-0.878-4.552-1.696-4.72-4.041-0.039-0.645 0.083-1.289 0.356-1.875s0.689-1.097 1.21-1.487c0.326-0.268 0.677-0.507 1.047-0.712-0.024 0.294-0.024 0.588 0 0.882 0.050 0.672 0.236 1.327 0.547 1.927s0.741 1.131 1.264 1.563c0.356 0.301 0.798 0.611 1.287 0.941 1.128 0.801 2.411 1.696 3.226 2.909 0.435 0.622 0.706 1.341 0.787 2.093s-0.028 1.512-0.32 2.211h-1.896c-3.909 0-8.401-1.069-9.289-4.062-0.176-0.616-0.175-1.268 0.004-1.883s0.528-1.169 1.008-1.598l-0.021-0.021zM9.917 20.669l1.433 1.416-1.433 1.416-1.433-1.425 1.433-1.408zM13.204 24.388l-1.184 1.17-1.433-1.416 1.433-1.412 1.244 1.225-0.060 0.433zM9.917 27.636l-1.433-1.416 1.433-1.416 1.433 1.416-1.433 1.416zM9.261 24.15l-1.433 1.416-1.193-1.179-0.051-0.424 1.244-1.225 1.433 1.412zM7.167 26.219l-0.287 0.284-0.073-0.644 0.36 0.36zM7.017 27.67l0.811-0.801 1.575 1.569c0.008 0.032 0.018 0.063 0.030 0.093h-2.317l-0.099-0.861zM12.011 26.868l0.811 0.801-0.099 0.848h-2.381l1.669-1.649zM12.955 26.504l-0.287-0.284 0.365-0.36-0.077 0.644zM13.384 22.798l-0.716-0.721 0.91-0.899-0.193 1.62zM12.007 21.432l-1.36-1.34h2.72l-1.36 1.34zM7.823 21.432l-1.36-1.34h2.72l-1.36 1.34zM12.457 30.489h-5.084c-0.008-0.001-0.015-0.004-0.020-0.010s-0.009-0.012-0.010-0.020l-0.12-1.018h5.389l-0.116 1.018c-0.001 0.008-0.005 0.016-0.011 0.021s-0.014 0.008-0.023 0.008h-0.004zM16.391 15.716h-1.493c-0.065-0.006-0.13 0.001-0.192 0.021s-0.119 0.053-0.167 0.097c-0.048 0.043-0.087 0.096-0.113 0.155s-0.040 0.123-0.040 0.187 0.014 0.128 0.040 0.187c0.026 0.059 0.065 0.112 0.113 0.155s0.105 0.076 0.167 0.096 0.127 0.028 0.192 0.021h0.532v2.493c-0.001 0.008-0.005 0.016-0.011 0.021s-0.014 0.008-0.023 0.008h-10.971c-0.008 0-0.017-0.003-0.023-0.008s-0.010-0.013-0.011-0.021v-2.493h8.5c0.116-0.011 0.223-0.064 0.301-0.149s0.122-0.196 0.122-0.311-0.043-0.226-0.122-0.311c-0.078-0.085-0.186-0.138-0.301-0.149h-9.439c-0.074 0.007-0.148-0.002-0.218-0.025s-0.134-0.061-0.189-0.11-0.098-0.109-0.128-0.176c-0.030-0.067-0.045-0.139-0.045-0.212s0.015-0.145 0.045-0.212c0.030-0.067 0.073-0.127 0.128-0.176s0.119-0.087 0.189-0.11 0.144-0.032 0.218-0.025h0.974c0.116-0.011 0.223-0.064 0.301-0.149s0.122-0.196 0.122-0.311c0-0.115-0.043-0.226-0.122-0.311s-0.186-0.138-0.301-0.149h-0.858c-0.123-0.645-0.103-1.309 0.059-1.946s0.461-1.232 0.877-1.743c0.3 0.924 1.073 2.188 3.003 3.193 1.815 0.937 4.218 1.416 7.139 1.416h1.716c0.074-0.007 0.148 0.002 0.218 0.025s0.134 0.061 0.189 0.11c0.055 0.049 0.098 0.109 0.128 0.176s0.045 0.139 0.045 0.212c0 0.073-0.015 0.145-0.045 0.212s-0.073 0.127-0.128 0.176-0.119 0.087-0.189 0.11c-0.070 0.023-0.144 0.032-0.218 0.025h0.030z"></path>
<path d="M19.817 27.915l-0.343 0.527 0.007 0.004 0.337-0.531zM23.514 28.093l0.629-0.014-0.016-0.728-0.718 0.122 0.105 0.62zM23.557 30.028l0.16 0.608 0.48-0.126-0.011-0.496-0.629 0.014zM18.705 30.12l0.141-0.613-0.004-0.001-0.137 0.614zM16.31 29.051l0.407-0.48-0.001-0.001-0.406 0.48zM15.444 27.086l0.629 0.003v-0.003h-0.629zM15.745 25.71l-0.564-0.278-0 0.001 0.565 0.277zM17.674 24.064l0.223 0.588 0.002-0.001-0.225-0.587zM23.852 23.905l0.627 0.049 0.041-0.531-0.517-0.128-0.151 0.61zM23.698 25.876l-0.117 0.618 0.69 0.131 0.055-0.7-0.627-0.049zM22.022 25.069c-0.944 0-1.737 0.101-2.317 0.356-0.297 0.131-0.567 0.314-0.764 0.574-0.203 0.268-0.3 0.58-0.3 0.909h1.258c0-0.074 0.018-0.115 0.044-0.149 0.033-0.043 0.106-0.111 0.268-0.182 0.338-0.148 0.92-0.249 1.81-0.249v-1.258zM18.642 26.908c0 0.647 0.29 1.181 0.832 1.534l0.687-1.054c-0.187-0.122-0.261-0.259-0.261-0.48h-1.258zM19.481 28.446c0.514 0.325 1.191 0.448 1.952 0.448v-1.258c-0.656 0-1.056-0.111-1.279-0.253l-0.673 1.063zM21.432 28.894c0.746 0 1.476-0.060 2.187-0.181l-0.21-1.24c-0.639 0.108-1.298 0.163-1.977 0.163v1.258zM22.885 28.107l0.043 1.934 1.257-0.028-0.043-1.934-1.257 0.028zM23.397 29.42c-0.719 0.189-1.512 0.286-2.383 0.286v1.258c0.964 0 1.866-0.108 2.703-0.328l-0.32-1.216zM21.015 29.706c-0.888 0-1.607-0.070-2.168-0.199l-0.282 1.226c0.684 0.157 1.504 0.231 2.45 0.231v-1.258zM18.843 29.506c-0.6-0.134-1.034-0.277-1.323-0.418l-0.552 1.13c0.415 0.203 0.956 0.371 1.6 0.515l0.275-1.227zM17.52 29.088c-0.31-0.151-0.576-0.324-0.803-0.516l-0.814 0.959c0.314 0.267 0.67 0.495 1.064 0.687l0.552-1.13zM16.716 28.571c-0.427-0.361-0.646-0.833-0.643-1.482l-1.258-0.006c-0.005 0.989 0.353 1.827 1.089 2.449l0.812-0.961zM16.073 27.086c0-0.423 0.083-0.785 0.237-1.099l-1.129-0.553c-0.247 0.505-0.365 1.060-0.365 1.652h1.258zM16.31 25.988c0.286-0.582 0.791-1.033 1.587-1.336l-0.446-1.176c-1.038 0.394-1.819 1.040-2.27 1.956l1.129 0.555zM17.899 24.652c0.837-0.321 1.77-0.486 2.808-0.486v-1.258c-1.173 0-2.262 0.187-3.259 0.57l0.451 1.174zM20.708 24.165c1.059 0 2.056 0.118 2.993 0.35l0.303-1.221c-1.044-0.259-2.143-0.387-3.296-0.387v1.258zM23.225 23.856l-0.154 1.971 1.254 0.098 0.154-1.971-1.254-0.098zM23.816 25.258c-0.654-0.124-1.254-0.189-1.794-0.189v1.258c0.442 0 0.961 0.054 1.56 0.167l0.234-1.236zM29.952 26.263l-0.003 0.629 0.639 0.004-0.007-0.639-0.629 0.007zM29.681 25.446l-0.428 0.461 0.005 0.005 0.422-0.466zM28.115 25.508l0.436 0.454 0.005-0.005-0.44-0.449zM27.735 26.251l-0.62-0.102-0.119 0.727 0.736 0.004 0.003-0.629zM32.359 29.604l0.38 0.501 0.226-0.171 0.021-0.283-0.627-0.047zM31.002 30.108l-0.135-0.614-0.004 0.001 0.139 0.613zM26.285 29.936l-0.214 0.591 0.005 0.002 0.209-0.593zM25.211 29.365l-0.39 0.493 0.008 0.006 0.383-0.499zM24.492 28.462l-0.564 0.279 0.001 0.003 0.563-0.281zM25.229 24.648l0.418 0.47 0-0-0.419-0.469zM30.977 23.966l0.252-0.576-0.006-0.003-0.246 0.579zM32.421 25.293l-0.566 0.275 0.002 0.004 0.564-0.278zM32.666 26.392l0.627 0.046 0.002-0.023v-0.023h-0.629zM32.593 27.405l-0.003 0.629 0.588 0.003 0.043-0.586-0.627-0.046zM27.612 27.381l0.003-0.629-0.82-0.004 0.209 0.793 0.608-0.16zM28.324 28.259l-0.309 0.547 0.003 0.001 0.307-0.549zM32.144 28.044v-0.629h-0.126l-0.116 0.048 0.242 0.581zM32.476 28.044l0.627 0.047 0.051-0.676h-0.678v0.629zM30.581 26.256c-0.005-0.455-0.109-0.943-0.477-1.276l-0.845 0.932c-0.007-0.007 0.007 0.001 0.025 0.056 0.019 0.058 0.037 0.154 0.039 0.302l1.258-0.013zM30.109 24.985c-0.33-0.306-0.763-0.408-1.189-0.408v1.258c0.245 0 0.32 0.059 0.334 0.071l0.856-0.922zM28.92 24.578c-0.468 0-0.904 0.147-1.245 0.481l0.88 0.898c0.069-0.067 0.169-0.121 0.364-0.121v-1.258zM27.68 25.054c-0.31 0.297-0.496 0.671-0.566 1.095l1.241 0.204c0.029-0.174 0.096-0.296 0.196-0.391l-0.871-0.907zM27.731 26.88l2.217 0.012 0.007-1.258-2.217-0.012-0.007 1.258zM31.979 29.103c-0.138 0.105-0.474 0.25-1.113 0.391l0.27 1.228c0.664-0.146 1.232-0.336 1.602-0.617l-0.76-1.002zM30.863 29.494c-0.609 0.138-1.195 0.206-1.759 0.206v1.258c0.665 0 1.344-0.080 2.037-0.237l-0.278-1.227zM29.104 29.7c-0.593 0-1.081-0.028-1.47-0.080l-0.168 1.247c0.462 0.062 1.010 0.092 1.638 0.092v-1.258zM27.634 29.619c-0.382-0.051-0.762-0.143-1.14-0.277l-0.419 1.186c0.457 0.161 0.921 0.274 1.391 0.337l0.168-1.247zM26.5 29.345c-0.368-0.133-0.667-0.295-0.906-0.479l-0.765 0.998c0.358 0.275 0.775 0.494 1.243 0.663l0.429-1.182zM25.601 28.871c-0.216-0.171-0.399-0.397-0.546-0.691l-1.125 0.563c0.221 0.443 0.517 0.819 0.891 1.115l0.781-0.986zM25.056 28.183c-0.132-0.268-0.211-0.612-0.211-1.054h-1.258c0 0.59 0.105 1.134 0.342 1.611l1.127-0.558zM24.844 27.129c0-0.442 0.080-0.833 0.231-1.181l-1.154-0.501c-0.226 0.521-0.334 1.084-0.334 1.681h1.258zM25.075 25.948c0.159-0.365 0.353-0.636 0.572-0.831l-0.836-0.939c-0.378 0.337-0.671 0.767-0.89 1.269l1.154 0.501zM25.647 25.117c0.676-0.603 1.707-0.952 3.193-0.952v-1.258c-1.667 0-3.043 0.392-4.030 1.271l0.837 0.939zM28.84 24.165c0.667 0 1.295 0.127 1.892 0.38l0.491-1.158c-0.755-0.32-1.551-0.48-2.383-0.48v1.258zM30.726 24.543c0.556 0.243 0.916 0.587 1.129 1.025l1.131-0.55c-0.36-0.741-0.963-1.281-1.757-1.628l-0.503 1.153zM31.857 25.571c0.117 0.238 0.181 0.508 0.181 0.821h1.258c0-0.489-0.101-0.952-0.311-1.378l-1.128 0.557zM32.039 26.346l-0.074 1.013 1.254 0.091 0.074-1.013-1.254-0.091zM32.596 26.777l-4.981-0.025-0.006 1.258 4.981 0.025 0.006-1.258zM27.004 27.541c0.147 0.558 0.507 0.98 1.011 1.265l0.619-1.095c-0.249-0.141-0.364-0.303-0.414-0.491l-1.216 0.321zM28.017 28.808c0.51 0.285 1.148 0.399 1.861 0.399v-1.258c-0.597 0-0.995-0.099-1.247-0.239l-0.614 1.098zM29.878 29.207c0.765 0 1.605-0.207 2.508-0.583l-0.483-1.161c-0.809 0.337-1.479 0.486-2.024 0.486v1.258zM32.144 28.673h0.332v-1.258h-0.332v1.258zM31.849 27.997l-0.117 1.56 1.254 0.094 0.117-1.56-1.254-0.094z"></path>
</symbol>
<symbol id="button" viewBox="0 0 32 32">
<path d="M10.586 3.272c-0.375 0.375-0.586 0.884-0.586 1.414s0.211 1.039 0.586 1.414l9.9 9.9-9.9 9.9c-0.364 0.377-0.566 0.882-0.561 1.407s0.215 1.026 0.586 1.397 0.872 0.581 1.397 0.586c0.524 0.005 1.030-0.197 1.407-0.561l11.314-11.314c0.375-0.375 0.586-0.884 0.586-1.414s-0.211-1.039-0.586-1.414l-11.314-11.314c-0.375-0.375-0.884-0.586-1.414-0.586s-1.039 0.211-1.414 0.586z"></path>
</symbol>
<symbol id="arrow" viewBox="0 0 82 32">
<path d="M81.414 17.414c0.781-0.781 0.781-2.047 0-2.828l-12.728-12.728c-0.781-0.781-2.047-0.781-2.828 0s-0.781 2.047 0 2.828l11.314 11.314-11.314 11.314c-0.781 0.781-0.781 2.047 0 2.828s2.047 0.781 2.828 0l12.728-12.728zM0 18h80v-4h-80v4z"></path>
</symbol>
<symbol id="github" viewBox="0 0 32 32">
<path d="M16 0c-8.788 0-16 7.212-16 16 0 7.499 5.262 14.312 12.25 16v-5.293c-0.692 0.152-1.33 0.156-2.034-0.052-0.946-0.279-1.714-0.909-2.284-1.869-0.364-0.613-1.008-1.278-1.68-1.23l-0.165-1.868c1.453-0.124 2.711 0.886 3.457 2.14 0.332 0.558 0.713 0.884 1.203 1.029 0.473 0.14 0.982 0.072 1.574-0.137 0.149-1.186 0.692-1.63 1.102-2.255v-0.001c-4.167-0.622-5.828-2.832-6.488-4.578-0.874-2.317-0.405-5.212 1.14-7.041 0.030-0.036 0.084-0.129 0.063-0.194-0.708-2.139 0.155-3.909 0.187-4.097 0.817 0.242 0.95-0.243 3.551 1.337l0.449 0.27c0.188 0.112 0.129 0.048 0.317 0.034 1.086-0.295 2.23-0.458 3.358-0.472 1.136 0.015 2.273 0.178 3.404 0.484l0.145 0.015c-0.013-0.002 0.040-0.009 0.127-0.062 3.248-1.968 3.132-1.324 4.003-1.608 0.032 0.188 0.883 1.987 0.182 4.099-0.095 0.291 2.816 2.956 1.203 7.235-0.659 1.746-2.32 3.957-6.487 4.578v0.001c0.534 0.814 1.176 1.247 1.173 2.927v6.608c6.988-1.688 12.25-8.501 12.25-16 0-8.788-7.212-16-16-16v0z"></path>
</symbol>
<symbol id="telegram" viewBox="0 0 44 32">
<path d="M17.344 21.048l-0.675 8.86c0.966 0 1.384-0.387 1.885-0.852l4.527-4.038 9.381 6.412c1.72 0.895 2.933 0.424 3.397-1.477l6.157-26.929 0.002-0.002c0.546-2.374-0.92-3.302-2.596-2.72l-36.194 12.933c-2.47 0.895-2.433 2.18-0.42 2.762l9.253 2.686 21.494-12.552c1.011-0.625 1.931-0.279 1.175 0.346l-17.386 14.57z"></path>
</symbol>
<symbol id="facebook" viewBox="0 0 16 32">
<path d="M14.143 15.972h-4.034v14.865h-6.112v-14.865h-2.907v-5.224h2.907v-3.381c0-2.418 1.142-6.203 6.166-6.203l4.527 0.019v5.071h-3.285c-0.539 0-1.296 0.271-1.296 1.424v3.075h4.567l-0.534 5.219z"></path>
</symbol>
<symbol id="dots-tablet" viewBox="0 0 356 32">
<path d="M293.019 2.291c0 1.021-0.832 1.849-1.858 1.849s-1.857-0.828-1.857-1.849c0-1.021 0.832-1.849 1.857-1.849s1.858 0.828 1.858 1.849zM300.449 2.753c0 1.021-0.832 1.849-1.858 1.849s-1.857-0.828-1.857-1.849c0-1.021 0.832-1.849 1.857-1.849s1.858 0.828 1.858 1.849zM294.877 6.915c1.026 0 1.857-0.828 1.857-1.849s-0.832-1.849-1.857-1.849-1.857 0.828-1.857 1.849c0 1.021 0.832 1.849 1.857 1.849zM292.090 7.839c0 1.021-0.832 1.849-1.857 1.849s-1.857-0.828-1.857-1.849c0-1.021 0.832-1.849 1.857-1.849s1.857 0.828 1.857 1.849zM286.518 12.001c1.026 0 1.857-0.828 1.857-1.849s-0.832-1.849-1.857-1.849c-1.026 0-1.858 0.828-1.858 1.849s0.832 1.849 1.858 1.849zM342.707 20.786c1.026 0 1.857-0.828 1.857-1.849s-0.832-1.849-1.857-1.849-1.857 0.828-1.857 1.849c0 1.021 0.832 1.849 1.857 1.849zM334.349 22.173c1.026 0 1.857-0.828 1.857-1.849s-0.832-1.849-1.857-1.849-1.858 0.828-1.858 1.849c0 1.021 0.832 1.849 1.858 1.849zM325.99 23.097c1.026 0 1.857-0.828 1.857-1.849s-0.832-1.849-1.857-1.849c-1.026 0-1.857 0.828-1.857 1.849s0.832 1.849 1.857 1.849zM316.238 24.022c1.026 0 1.857-0.828 1.857-1.849s-0.832-1.849-1.857-1.849c-1.026 0-1.857 0.828-1.857 1.849s0.832 1.849 1.857 1.849zM314.381 24.484c0 1.021-0.832 1.849-1.858 1.849s-1.857-0.828-1.857-1.849c0-1.021 0.832-1.849 1.857-1.849s1.858 0.828 1.858 1.849zM307.879 29.108c1.026 0 1.858-0.828 1.858-1.849s-0.832-1.849-1.858-1.849-1.857 0.828-1.857 1.849c0 1.021 0.832 1.849 1.857 1.849zM304.164 31.42c1.026 0 1.857-0.828 1.857-1.849s-0.832-1.849-1.857-1.849-1.857 0.828-1.857 1.849c0 1.021 0.832 1.849 1.857 1.849zM315.773 28.646c0 1.021-0.832 1.849-1.857 1.849s-1.857-0.828-1.857-1.849c0-1.021 0.832-1.849 1.857-1.849s1.857 0.828 1.857 1.849zM317.631 28.183c1.026 0 1.857-0.828 1.857-1.849s-0.832-1.849-1.857-1.849-1.857 0.828-1.857 1.849c0 1.021 0.832 1.849 1.857 1.849zM324.132 23.56c0 1.021-0.832 1.849-1.857 1.849s-1.857-0.828-1.857-1.849c0-1.021 0.832-1.849 1.857-1.849s1.857 0.828 1.857 1.849zM324.132 27.721c0 1.021-0.832 1.849-1.857 1.849s-1.858-0.828-1.858-1.849c0-1.021 0.832-1.849 1.858-1.849s1.857 0.828 1.857 1.849zM325.99 27.259c1.026 0 1.857-0.828 1.857-1.849s-0.832-1.849-1.857-1.849-1.857 0.828-1.857 1.849c0 1.021 0.832 1.849 1.857 1.849zM332.491 22.635c0 1.021-0.832 1.849-1.857 1.849s-1.857-0.828-1.857-1.849c0-1.021 0.832-1.849 1.857-1.849s1.857 0.828 1.857 1.849zM332.491 26.334c0 1.021-0.832 1.849-1.857 1.849s-1.857-0.828-1.857-1.849c0-1.021 0.832-1.849 1.857-1.849s1.857 0.828 1.857 1.849zM334.349 25.872c1.026 0 1.857-0.828 1.857-1.849s-0.832-1.849-1.857-1.849c-1.026 0-1.858 0.828-1.858 1.849s0.832 1.849 1.858 1.849zM340.85 21.248c0 1.021-0.832 1.849-1.857 1.849s-1.857-0.828-1.857-1.849c0-1.021 0.832-1.849 1.857-1.849s1.857 0.828 1.857 1.849zM334.813 29.57c0 1.021-0.832 1.849-1.857 1.849s-1.857-0.828-1.857-1.849c0-1.021 0.832-1.849 1.857-1.849s1.857 0.828 1.857 1.849zM336.67 29.108c1.026 0 1.857-0.828 1.857-1.849s-0.832-1.849-1.857-1.849-1.857 0.828-1.857 1.849c0 1.021 0.832 1.849 1.857 1.849zM343.636 30.033c0 1.021-0.832 1.849-1.857 1.849s-1.858-0.828-1.858-1.849c0-1.021 0.832-1.849 1.858-1.849s1.857 0.828 1.857 1.849zM341.314 26.334c1.026 0 1.858-0.828 1.858-1.849s-0.832-1.849-1.858-1.849c-1.026 0-1.857 0.828-1.857 1.849s0.832 1.849 1.857 1.849zM348.28 27.259c0 1.021-0.832 1.849-1.857 1.849s-1.858-0.828-1.858-1.849c0-1.021 0.832-1.849 1.858-1.849s1.857 0.828 1.857 1.849zM350.601 31.882c1.026 0 1.858-0.828 1.858-1.849s-0.832-1.849-1.858-1.849-1.857 0.828-1.857 1.849c0 1.021 0.832 1.849 1.857 1.849zM346.887 22.173c0 1.021-0.832 1.849-1.857 1.849s-1.857-0.828-1.857-1.849c0-1.021 0.832-1.849 1.857-1.849s1.857 0.828 1.857 1.849zM350.601 26.796c1.026 0 1.858-0.828 1.858-1.849s-0.832-1.849-1.858-1.849-1.857 0.828-1.857 1.849c0 1.021 0.832 1.849 1.857 1.849zM356.174 27.721c0 1.021-0.832 1.849-1.857 1.849s-1.857-0.828-1.857-1.849c0-1.021 0.832-1.849 1.857-1.849s1.857 0.828 1.857 1.849zM279.088 11.538c0.876 0 1.61-0.603 1.806-1.415 0.092 0.018 0.187 0.028 0.283 0.028 0.606 0 1.134-0.377 1.414-0.937 0.070 0.008 0.14 0.012 0.211 0.012 1.026 0 1.857-0.828 1.857-1.849s-0.832-1.849-1.857-1.849c-0.688 0-1.288 0.372-1.609 0.925l-0.017-0c-0.779 0-1.429 0.623-1.588 1.455-0.16-0.044-0.328-0.068-0.501-0.068-1.026 0-1.858 0.828-1.858 1.849s0.832 1.85 1.858 1.85zM287.447 6.452c1.026 0 1.857-0.828 1.857-1.849s-0.832-1.849-1.857-1.849c-1.026 0-1.857 0.828-1.857 1.849s0.832 1.849 1.857 1.849zM295.341 31.42c1.026 0 1.858-0.828 1.858-1.849s-0.832-1.849-1.858-1.849-1.857 0.828-1.857 1.849c0 1.021 0.832 1.849 1.857 1.849zM300.914 27.259c0 1.021-0.832 1.849-1.857 1.849s-1.858-0.828-1.858-1.849c0-1.021 0.832-1.849 1.858-1.849s1.857 0.828 1.857 1.849zM303.7 26.334c1.026 0 1.857-0.828 1.857-1.849s-0.832-1.849-1.857-1.849c-1.026 0-1.858 0.828-1.858 1.849s0.832 1.849 1.858 1.849zM309.272 22.173c0 1.021-0.832 1.849-1.857 1.849s-1.857-0.828-1.857-1.849c0-1.021 0.832-1.849 1.857-1.849s1.857 0.828 1.857 1.849zM290.697 30.033c1.026 0 1.857-0.828 1.857-1.849s-0.832-1.849-1.857-1.849c-1.026 0-1.857 0.828-1.857 1.849s0.832 1.849 1.857 1.849zM296.27 25.872c0 1.021-0.832 1.849-1.857 1.849s-1.858-0.828-1.858-1.849c0-1.021 0.832-1.849 1.858-1.849s1.857 0.828 1.857 1.849zM299.056 24.947c1.026 0 1.857-0.828 1.857-1.849s-0.832-1.849-1.857-1.849-1.858 0.828-1.858 1.849c0 1.021 0.832 1.849 1.858 1.849zM304.628 20.785c0 1.021-0.832 1.849-1.857 1.849s-1.857-0.828-1.857-1.849c0-1.021 0.832-1.849 1.857-1.849s1.857 0.828 1.857 1.849zM292.555 23.56c1.026 0 1.857-0.828 1.857-1.849s-0.832-1.849-1.857-1.849-1.858 0.828-1.858 1.849c0 1.021 0.832 1.849 1.858 1.849zM298.127 19.398c0 1.021-0.832 1.849-1.857 1.849s-1.857-0.828-1.857-1.849c0-1.021 0.832-1.849 1.857-1.849s1.857 0.828 1.857 1.849zM300.914 18.474c1.026 0 1.857-0.828 1.857-1.849s-0.832-1.849-1.857-1.849-1.857 0.828-1.857 1.849c0 1.021 0.832 1.849 1.857 1.849zM306.486 14.312c0 1.021-0.832 1.849-1.857 1.849s-1.857-0.828-1.857-1.849c0-1.021 0.832-1.849 1.857-1.849s1.857 0.828 1.857 1.849zM292.555 12.925c1.026 0 1.857-0.828 1.857-1.849s-0.832-1.849-1.857-1.849c-1.026 0-1.858 0.828-1.858 1.849s0.832 1.849 1.858 1.849zM298.127 8.764c0 1.021-0.832 1.849-1.857 1.849s-1.857-0.828-1.857-1.849c0-1.021 0.832-1.849 1.857-1.849s1.857 0.828 1.857 1.849zM300.914 7.839c1.026 0 1.857-0.828 1.857-1.849s-0.832-1.849-1.857-1.849-1.857 0.828-1.857 1.849c0 1.021 0.832 1.849 1.857 1.849zM306.486 3.678c0 1.021-0.832 1.849-1.857 1.849s-1.857-0.828-1.857-1.849c0-1.021 0.832-1.849 1.857-1.849s1.857 0.828 1.857 1.849zM291.626 18.936c1.026 0 1.857-0.828 1.857-1.849s-0.832-1.849-1.857-1.849c-1.026 0-1.858 0.828-1.858 1.849s0.832 1.849 1.858 1.849zM297.198 14.775c0 1.021-0.832 1.849-1.857 1.849s-1.857-0.828-1.857-1.849c0-1.021 0.832-1.849 1.857-1.849s1.857 0.828 1.857 1.849zM299.985 13.85c1.026 0 1.857-0.828 1.857-1.849s-0.832-1.849-1.857-1.849-1.857 0.828-1.857 1.849c0 1.021 0.832 1.849 1.857 1.849zM305.557 9.689c0 1.021-0.832 1.849-1.857 1.849s-1.858-0.828-1.858-1.849c0-1.021 0.832-1.849 1.858-1.849s1.857 0.828 1.857 1.849zM273.283 10.151c0.898 0 1.625-0.828 1.625-1.85s-0.728-1.849-1.625-1.849c-0.897 0-1.625 0.828-1.625 1.849s0.728 1.849 1.625 1.849zM278.624 5.99c0 1.021-0.728 1.849-1.625 1.849s-1.625-0.828-1.625-1.849c0-1.021 0.728-1.849 1.625-1.849s1.625 0.828 1.625 1.849zM281.642 5.065c0.897 0 1.625-0.828 1.625-1.849s-0.728-1.849-1.625-1.849c-0.898 0-1.625 0.828-1.625 1.849s0.728 1.849 1.625 1.849zM49.456 18.087c0.897 0 1.625-0.831 1.625-1.855s-0.728-1.855-1.625-1.855c-0.898 0-1.626 0.831-1.626 1.855s0.728 1.855 1.626 1.855zM15.789 19.942c0 1.024-0.832 1.855-1.857 1.855s-1.857-0.831-1.857-1.855c0-1.024 0.832-1.855 1.857-1.855s1.857 0.831 1.857 1.855zM10.216 24.116c1.026 0 1.857-0.831 1.857-1.855s-0.832-1.855-1.857-1.855c-1.026 0-1.857 0.831-1.857 1.855s0.832 1.855 1.857 1.855zM7.43 25.043c0 1.024-0.832 1.855-1.858 1.855s-1.857-0.831-1.857-1.855 0.832-1.855 1.857-1.855c1.026 0 1.858 0.831 1.858 1.855zM3.715 27.362c0 1.024-0.832 1.855-1.857 1.855s-1.857-0.831-1.857-1.855c0-1.024 0.832-1.855 1.857-1.855s1.857 0.831 1.857 1.855zM24.147 30.145c1.026 0 1.857-0.831 1.857-1.855s-0.832-1.855-1.857-1.855c-1.026 0-1.857 0.831-1.857 1.855s0.832 1.855 1.857 1.855zM29.72 25.971c0 1.024-0.832 1.855-1.857 1.855s-1.857-0.831-1.857-1.855c0-1.024 0.832-1.855 1.857-1.855s1.857 0.831 1.857 1.855zM32.506 25.043c1.026 0 1.857-0.831 1.857-1.855s-0.832-1.855-1.857-1.855c-1.026 0-1.857 0.831-1.857 1.855s0.832 1.855 1.857 1.855zM38.079 20.87c0 1.024-0.832 1.855-1.857 1.855s-1.857-0.831-1.857-1.855c0-1.024 0.832-1.855 1.857-1.855s1.857 0.831 1.857 1.855zM32.738 28.754c0.898 0 1.625-0.831 1.625-1.855s-0.728-1.855-1.625-1.855c-0.898 0-1.625 0.831-1.625 1.855s0.728 1.855 1.625 1.855zM38.079 24.58c0 1.024-0.728 1.855-1.625 1.855s-1.625-0.831-1.625-1.855 0.728-1.855 1.625-1.855c0.898 0 1.625 0.831 1.625 1.855zM40.633 24.116c0.898 0 1.625-0.831 1.625-1.855s-0.728-1.855-1.625-1.855c-0.898 0-1.625 0.831-1.625 1.855s0.728 1.855 1.625 1.855zM46.437 19.942c0 1.024-0.727 1.855-1.625 1.855s-1.625-0.831-1.625-1.855c0-1.024 0.728-1.855 1.625-1.855s1.625 0.831 1.625 1.855zM41.329 18.087c0 1.024-0.728 1.855-1.625 1.855s-1.625-0.831-1.625-1.855c0-1.024 0.728-1.855 1.625-1.855s1.625 0.831 1.625 1.855zM15.789 30.145c1.026 0 1.857-0.831 1.857-1.855s-0.832-1.855-1.857-1.855c-1.026 0-1.857 0.831-1.857 1.855s0.832 1.855 1.857 1.855zM21.361 25.971c0 1.024-0.832 1.855-1.857 1.855s-1.858-0.831-1.858-1.855 0.832-1.855 1.858-1.855c1.026 0 1.857 0.831 1.857 1.855zM24.147 25.043c1.026 0 1.857-0.831 1.857-1.855s-0.832-1.855-1.857-1.855c-1.026 0-1.857 0.831-1.857 1.855s0.832 1.855 1.857 1.855zM29.72 20.87c0 1.024-0.832 1.855-1.857 1.855s-1.857-0.831-1.857-1.855c0-1.024 0.832-1.855 1.857-1.855s1.857 0.831 1.857 1.855zM8.359 29.681c1.026 0 1.857-0.831 1.857-1.855s-0.832-1.855-1.857-1.855c-1.026 0-1.857 0.831-1.857 1.855s0.832 1.855 1.857 1.855zM13.931 25.507c0 1.024-0.832 1.855-1.857 1.855s-1.857-0.831-1.857-1.855c0-1.024 0.832-1.855 1.857-1.855s1.857 0.831 1.857 1.855zM16.717 24.58c1.026 0 1.858-0.831 1.858-1.855s-0.832-1.855-1.858-1.855c-1.026 0-1.857 0.831-1.857 1.855s0.832 1.855 1.857 1.855zM22.29 20.406c0 1.024-0.832 1.855-1.857 1.855s-1.857-0.831-1.857-1.855 0.832-1.855 1.857-1.855c1.026 0 1.857 0.831 1.857 1.855z"></path>
</symbol>

<symbol id="dots-desktop" viewBox="0 0 100 32">
<path d="M40.683 1.082c0.27 0 0.488-0.233 0.488-0.52s-0.219-0.52-0.488-0.52c-0.27 0-0.488 0.233-0.488 0.52s0.219 0.52 0.488 0.52zM40.032 1.255c0 0.287-0.219 0.52-0.488 0.52s-0.488-0.233-0.488-0.52 0.219-0.52 0.488-0.52c0.27 0 0.488 0.233 0.488 0.52zM38.651 2.422c-0.087 0.083-0.201 0.134-0.327 0.134-0.27 0-0.488-0.233-0.488-0.52s0.219-0.52 0.488-0.52c0.257 0 0.468 0.212 0.487 0.481 0.087-0.083 0.201-0.134 0.327-0.134 0.27 0 0.488 0.233 0.488 0.52 0 0.134-0.048 0.257-0.126 0.349 0.015-0.001 0.030-0.002 0.045-0.002 0.27 0 0.488 0.233 0.488 0.52s-0.219 0.52-0.488 0.52c-0.27 0-0.488-0.233-0.488-0.52 0-0.134 0.048-0.257 0.126-0.349-0.015 0.001-0.030 0.002-0.045 0.002-0.257 0-0.468-0.212-0.487-0.481zM37.266 3.25c0.093 0 0.179-0.027 0.253-0.075 0.043 0.24 0.241 0.422 0.48 0.422 0.021 0 0.041-0.001 0.061-0.004-0.135 0.093-0.224 0.254-0.224 0.438 0 0.287 0.219 0.52 0.488 0.52s0.488-0.233 0.488-0.52-0.219-0.52-0.488-0.52c-0.021 0-0.041 0.001-0.061 0.004 0.135-0.093 0.224-0.254 0.224-0.438 0-0.287-0.219-0.52-0.488-0.52-0.093 0-0.179 0.027-0.253 0.075-0.043-0.24-0.241-0.422-0.48-0.422-0.021 0-0.042 0.001-0.063 0.004-0.084-0.158-0.243-0.264-0.425-0.264-0.27 0-0.488 0.233-0.488 0.52s0.219 0.52 0.488 0.52c0.021 0 0.042-0.001 0.063-0.004 0.084 0.158 0.243 0.264 0.425 0.264zM36.208 4.551c0 0.287-0.219 0.52-0.488 0.52-0.1 0-0.194-0.032-0.271-0.088-0.257-0.015-0.461-0.242-0.461-0.52 0-0.287 0.219-0.52 0.488-0.52 0.1 0 0.194 0.032 0.271 0.088 0.257 0.015 0.461 0.242 0.461 0.52zM37.121 4.227c0.090-0.094 0.145-0.225 0.145-0.37 0-0.287-0.219-0.52-0.488-0.52s-0.488 0.233-0.488 0.52 0.219 0.52 0.488 0.52c0.051 0 0.099-0.008 0.145-0.023-0.090 0.094-0.145 0.225-0.145 0.37 0 0.287 0.219 0.52 0.488 0.52s0.488-0.233 0.488-0.52-0.219-0.52-0.488-0.52c-0.051 0-0.099 0.008-0.145 0.023zM33.849 4.637c0 0.287-0.218 0.52-0.488 0.52s-0.488-0.233-0.488-0.52c0-0.287 0.218-0.52 0.488-0.52s0.488 0.233 0.488 0.52zM34.418 4.464c0.27 0 0.488-0.233 0.488-0.52s-0.219-0.52-0.488-0.52c-0.27 0-0.488 0.233-0.488 0.52s0.219 0.52 0.488 0.52zM36.127 3.163c0 0.287-0.219 0.52-0.488 0.52s-0.488-0.233-0.488-0.52 0.219-0.52 0.488-0.52c0.27 0 0.488 0.233 0.488 0.52zM32.547 6.632c0 0.287-0.219 0.52-0.488 0.52s-0.488-0.233-0.488-0.52 0.218-0.52 0.488-0.52c0.27 0 0.488 0.233 0.488 0.52zM33.116 6.459c0.27 0 0.488-0.233 0.488-0.52s-0.219-0.52-0.488-0.52c-0.27 0-0.488 0.233-0.488 0.52s0.219 0.52 0.488 0.52zM34.825 5.158c0 0.287-0.219 0.52-0.488 0.52s-0.488-0.233-0.488-0.52 0.219-0.52 0.488-0.52c0.27 0 0.488 0.233 0.488 0.52zM31.57 8.453c0 0.287-0.219 0.52-0.488 0.52-0.028 0-0.056-0.002-0.082-0.007-0.033 0.253-0.238 0.447-0.484 0.447-0.27-0-0.488-0.234-0.488-0.521s0.219-0.52 0.489-0.52c0.028 0 0.055 0.003 0.082 0.007 0.033-0.253 0.237-0.447 0.483-0.447 0.27 0 0.488 0.233 0.488 0.52zM32.14 8.28c0.27 0 0.488-0.233 0.488-0.52s-0.218-0.52-0.488-0.52c-0.27 0-0.488 0.233-0.488 0.52s0.218 0.52 0.488 0.52zM33.849 6.979c0 0.287-0.218 0.52-0.488 0.52s-0.488-0.233-0.488-0.52c0-0.287 0.218-0.52 0.488-0.52s0.488 0.233 0.488 0.52zM34.5 6.805c0.27 0 0.488-0.233 0.488-0.52s-0.219-0.52-0.488-0.52c-0.27 0-0.488 0.233-0.488 0.52s0.219 0.52 0.488 0.52zM30.839 10.276c-0 0.287-0.219 0.52-0.489 0.52s-0.488-0.234-0.487-0.521c0-0.287 0.219-0.52 0.489-0.52s0.488 0.234 0.487 0.521zM31.409 10.103c0.27 0 0.488-0.232 0.489-0.52s-0.218-0.521-0.488-0.521c-0.27-0-0.488 0.232-0.489 0.52s0.218 0.521 0.488 0.521zM33.119 8.805c-0 0.287-0.219 0.52-0.489 0.52s-0.488-0.234-0.487-0.521c0-0.287 0.219-0.52 0.489-0.52s0.488 0.234 0.487 0.521zM33.77 8.633c0.27 0 0.489-0.232 0.489-0.52s-0.218-0.521-0.487-0.521c-0.27-0-0.489 0.232-0.489 0.52s0.218 0.521 0.487 0.521zM20.507 13.401c-0 0.287-0.219 0.52-0.489 0.52s-0.488-0.234-0.488-0.521c0-0.287 0.219-0.52 0.489-0.52s0.488 0.234 0.488 0.521zM21.158 13.229c0.27 0 0.488-0.232 0.489-0.52s-0.218-0.521-0.488-0.521c-0.27-0-0.488 0.232-0.489 0.52s0.218 0.521 0.488 0.521zM27.584 11.056c-0 0.287-0.219 0.52-0.489 0.52s-0.488-0.234-0.488-0.521c0-0.287 0.219-0.52 0.489-0.52s0.488 0.234 0.488 0.521zM28.154 10.884c0.27 0 0.488-0.232 0.489-0.52s-0.218-0.521-0.488-0.521c-0.27-0-0.488 0.232-0.489 0.52s0.218 0.521 0.488 0.521zM29.864 9.586c-0 0.287-0.219 0.52-0.489 0.52s-0.488-0.234-0.488-0.521c0-0.287 0.219-0.52 0.489-0.52s0.488 0.234 0.488 0.521zM28.478 8.366c0.27 0 0.488-0.233 0.488-0.52s-0.219-0.52-0.488-0.52c-0.27 0-0.488 0.233-0.488 0.52s0.219 0.52 0.488 0.52zM26.2 8.713c0.27 0 0.488-0.233 0.488-0.52s-0.219-0.52-0.488-0.52c-0.27 0-0.488 0.233-0.488 0.52s0.219 0.52 0.488 0.52zM25.549 8.887c0 0.287-0.219 0.52-0.488 0.52s-0.488-0.233-0.488-0.52c0-0.287 0.219-0.52 0.488-0.52s0.488 0.233 0.488 0.52zM23.84 10.188c0.27 0 0.488-0.233 0.488-0.52s-0.219-0.52-0.488-0.52c-0.27 0-0.488 0.233-0.488 0.52s0.219 0.52 0.488 0.52zM23.271 10.361c0 0.287-0.219 0.52-0.488 0.52s-0.488-0.233-0.488-0.52c0-0.287 0.219-0.52 0.488-0.52s0.488 0.233 0.488 0.52zM21.237 11.662c0.27 0 0.488-0.233 0.488-0.52s-0.219-0.52-0.488-0.52c-0.062 0-0.122 0.012-0.176 0.035 0.009-0.039 0.013-0.080 0.013-0.122 0-0.287-0.219-0.52-0.488-0.52s-0.488 0.233-0.488 0.52c0 0.287 0.219 0.52 0.488 0.52 0.062 0 0.122-0.012 0.176-0.035-0.009 0.039-0.013 0.080-0.013 0.122 0 0.287 0.219 0.52 0.488 0.52zM20.098 12.356c0.27 0 0.488-0.233 0.488-0.52s-0.219-0.52-0.488-0.52c-0.27 0-0.488 0.233-0.488 0.52s0.219 0.52 0.488 0.52zM25.387 11.402c0 0.287-0.219 0.52-0.488 0.52s-0.488-0.233-0.488-0.52c0-0.287 0.219-0.52 0.488-0.52s0.488 0.233 0.488 0.52zM25.956 11.228c0.27 0 0.488-0.233 0.488-0.52s-0.219-0.52-0.488-0.52c-0.27 0-0.488 0.233-0.488 0.52s0.219 0.52 0.488 0.52zM27.665 9.927c0 0.287-0.219 0.52-0.488 0.52s-0.488-0.233-0.488-0.52c0-0.287 0.218-0.52 0.488-0.52s0.488 0.233 0.488 0.52zM28.316 9.754c0.27 0 0.488-0.233 0.488-0.52s-0.219-0.52-0.488-0.52c-0.27 0-0.488 0.233-0.488 0.52s0.219 0.52 0.488 0.52zM25.549 10.014c0 0.287-0.219 0.52-0.488 0.52s-0.488-0.233-0.488-0.52c0-0.287 0.219-0.52 0.488-0.52s0.488 0.233 0.488 0.52zM26.119 9.841c0.27 0 0.488-0.233 0.488-0.52s-0.219-0.52-0.488-0.52c-0.27 0-0.488 0.233-0.488 0.52s0.219 0.52 0.488 0.52zM27.828 8.54c0 0.287-0.219 0.52-0.488 0.52s-0.488-0.233-0.488-0.52c0-0.287 0.219-0.52 0.488-0.52s0.488 0.233 0.488 0.52zM21.644 10.361c0.27 0 0.488-0.233 0.488-0.52s-0.219-0.52-0.488-0.52c-0.27 0-0.488 0.233-0.488 0.52s0.218 0.52 0.488 0.52zM23.352 9.060c0 0.287-0.219 0.52-0.488 0.52s-0.488-0.233-0.488-0.52 0.219-0.52 0.488-0.52c0.27 0 0.488 0.233 0.488 0.52zM24.003 8.887c0.27 0 0.488-0.233 0.488-0.52s-0.219-0.52-0.488-0.52c-0.27 0-0.488 0.233-0.488 0.52s0.219 0.52 0.488 0.52zM41.172 2.556c0 0.287-0.219 0.52-0.488 0.52s-0.488-0.233-0.488-0.52 0.219-0.52 0.488-0.52c0.27 0 0.488 0.233 0.488 0.52zM37.103 8.8c0.27 0 0.488-0.233 0.488-0.52s-0.219-0.52-0.488-0.52c-0.27 0-0.488 0.233-0.488 0.52s0.219 0.52 0.488 0.52zM38.649 7.586c0 0.287-0.219 0.52-0.488 0.52s-0.488-0.233-0.488-0.52 0.219-0.52 0.488-0.52c0.27 0 0.488 0.233 0.488 0.52zM39.382 7.326c0.27 0 0.488-0.233 0.488-0.52s-0.219-0.52-0.488-0.52c-0.27 0-0.488 0.233-0.488 0.52s0.219 0.52 0.488 0.52zM41.009 6.112c0 0.287-0.219 0.52-0.488 0.52s-0.488-0.233-0.488-0.52 0.219-0.52 0.488-0.52c0.27 0 0.488 0.233 0.488 0.52zM37.347 6.979c0.27 0 0.488-0.233 0.488-0.52s-0.219-0.52-0.488-0.52c-0.27 0-0.488 0.233-0.488 0.52s0.218 0.52 0.488 0.52zM38.893 5.765c0 0.287-0.219 0.52-0.488 0.52s-0.488-0.233-0.488-0.52 0.219-0.52 0.488-0.52c0.27 0 0.488 0.233 0.488 0.52zM39.626 5.505c0.27 0 0.488-0.233 0.488-0.52s-0.219-0.52-0.488-0.52c-0.27 0-0.488 0.233-0.488 0.52s0.219 0.52 0.488 0.52zM41.253 4.291c0 0.287-0.219 0.52-0.488 0.52s-0.488-0.233-0.488-0.52 0.219-0.52 0.488-0.52c0.27 0 0.488 0.233 0.488 0.52zM37.185 10.534c0.27 0 0.488-0.233 0.488-0.52s-0.219-0.52-0.488-0.52c-0.27 0-0.488 0.233-0.488 0.52s0.219 0.52 0.488 0.52zM38.731 9.32c0 0.287-0.219 0.52-0.488 0.52s-0.488-0.233-0.488-0.52 0.219-0.52 0.488-0.52c0.27 0 0.488 0.233 0.488 0.52zM39.463 9.060c0.27 0 0.488-0.233 0.488-0.52s-0.219-0.52-0.488-0.52c-0.27 0-0.488 0.233-0.488 0.52s0.219 0.52 0.488 0.52zM41.090 7.846c0 0.287-0.219 0.52-0.488 0.52s-0.488-0.233-0.488-0.52 0.219-0.52 0.488-0.52c0.27 0 0.488 0.233 0.488 0.52zM37.673 11.748c0.27 0 0.488-0.233 0.488-0.52s-0.219-0.52-0.488-0.52c-0.27 0-0.488 0.233-0.488 0.52s0.219 0.52 0.488 0.52zM39.219 10.534c0 0.287-0.219 0.52-0.488 0.52s-0.488-0.233-0.488-0.52c0-0.287 0.219-0.52 0.488-0.52s0.488 0.233 0.488 0.52zM39.951 10.274c0.27 0 0.488-0.233 0.488-0.52s-0.219-0.52-0.488-0.52c-0.27 0-0.488 0.233-0.488 0.52s0.219 0.52 0.488 0.52zM41.578 9.060c0 0.287-0.219 0.52-0.488 0.52s-0.488-0.233-0.488-0.52 0.219-0.52 0.488-0.52c0.27 0 0.488 0.233 0.488 0.52zM38.731 12.702c0.27 0 0.488-0.233 0.488-0.52s-0.219-0.52-0.488-0.52c-0.27 0-0.488 0.233-0.488 0.52s0.219 0.52 0.488 0.52zM40.277 11.488c0 0.287-0.219 0.52-0.488 0.52s-0.488-0.233-0.488-0.52 0.218-0.52 0.488-0.52c0.27 0 0.488 0.233 0.488 0.52zM41.009 11.228c0.27 0 0.488-0.233 0.488-0.52s-0.219-0.52-0.488-0.52c-0.27 0-0.488 0.233-0.488 0.52s0.218 0.52 0.488 0.52zM42.636 10.014c0 0.287-0.219 0.52-0.488 0.52s-0.488-0.233-0.488-0.52c0-0.287 0.219-0.52 0.488-0.52s0.488 0.233 0.488 0.52zM40.114 13.483c0.27 0 0.488-0.233 0.488-0.52s-0.219-0.52-0.488-0.52c-0.27 0-0.488 0.233-0.488 0.52s0.219 0.52 0.488 0.52zM41.66 12.269c0 0.287-0.219 0.52-0.488 0.52s-0.488-0.233-0.488-0.52c0-0.287 0.219-0.52 0.488-0.52s0.488 0.233 0.488 0.52zM42.392 12.009c0.27 0 0.488-0.233 0.488-0.52s-0.219-0.52-0.488-0.52c-0.27 0-0.488 0.233-0.488 0.52s0.219 0.52 0.488 0.52zM43.677 11.291c-0.046 0.015-0.095 0.023-0.145 0.023-0.27 0-0.488-0.233-0.488-0.52s0.218-0.52 0.488-0.52c0.27 0 0.488 0.233 0.488 0.52 0 0.145-0.056 0.276-0.145 0.37 0.046-0.015 0.095-0.023 0.145-0.023 0.27 0 0.488 0.233 0.488 0.52s-0.219 0.52-0.488 0.52c-0.27 0-0.488-0.233-0.488-0.52 0-0.145 0.056-0.276 0.145-0.37zM41.741 13.656c0.27 0 0.488-0.233 0.488-0.52s-0.219-0.52-0.488-0.52c-0.27 0-0.488 0.233-0.488 0.52s0.219 0.52 0.488 0.52zM43.287 12.442c0 0.287-0.219 0.52-0.488 0.52s-0.488-0.233-0.488-0.52c0-0.287 0.219-0.52 0.488-0.52s0.488 0.233 0.488 0.52zM45.647 10.968c0 0.287-0.219 0.52-0.488 0.52s-0.488-0.233-0.488-0.52c0-0.287 0.219-0.52 0.488-0.52s0.488 0.233 0.488 0.52zM43.369 14.003c0.27 0 0.488-0.233 0.488-0.52s-0.219-0.52-0.488-0.52c-0.27 0-0.488 0.233-0.488 0.52s0.219 0.52 0.488 0.52zM44.915 12.789c0 0.287-0.219 0.52-0.488 0.52s-0.488-0.233-0.488-0.52c0-0.287 0.219-0.52 0.488-0.52s0.488 0.233 0.488 0.52zM45.647 12.529c0.27 0 0.488-0.233 0.488-0.52s-0.219-0.52-0.488-0.52c-0.27 0-0.488 0.233-0.488 0.52s0.219 0.52 0.488 0.52zM47.274 11.315c0 0.287-0.219 0.52-0.488 0.52s-0.488-0.233-0.488-0.52 0.219-0.52 0.488-0.52c0.27 0 0.488 0.233 0.488 0.52zM42.962 15.651c0.27 0 0.488-0.233 0.488-0.52s-0.219-0.52-0.488-0.52c-0.27 0-0.488 0.233-0.488 0.52s0.219 0.52 0.488 0.52zM44.508 14.437c0 0.287-0.219 0.52-0.488 0.52s-0.488-0.233-0.488-0.52c0-0.287 0.219-0.52 0.488-0.52s0.488 0.233 0.488 0.52zM45.24 14.177c0.27 0 0.488-0.233 0.488-0.52s-0.219-0.52-0.488-0.52c-0.27 0-0.488 0.233-0.488 0.52s0.219 0.52 0.488 0.52zM46.867 12.963c0 0.287-0.219 0.52-0.488 0.52s-0.488-0.233-0.488-0.52c0-0.287 0.219-0.52 0.488-0.52s0.488 0.233 0.488 0.52zM42.799 17.212c0.27 0 0.488-0.233 0.488-0.52s-0.219-0.52-0.488-0.52c-0.27 0-0.488 0.233-0.488 0.52s0.219 0.52 0.488 0.52zM44.345 15.998c0 0.287-0.219 0.52-0.488 0.52s-0.488-0.233-0.488-0.52 0.219-0.52 0.488-0.52c0.27 0 0.488 0.233 0.488 0.52zM45.077 15.738c0.27 0 0.488-0.233 0.488-0.52s-0.219-0.52-0.488-0.52c-0.27 0-0.488 0.233-0.488 0.52s0.219 0.52 0.488 0.52zM46.705 14.524c0 0.287-0.219 0.52-0.488 0.52s-0.488-0.233-0.488-0.52 0.219-0.52 0.488-0.52c0.27 0 0.488 0.233 0.488 0.52zM42.229 19.206c0.27 0 0.488-0.233 0.488-0.52s-0.219-0.52-0.488-0.52c-0.27 0-0.488 0.233-0.488 0.52s0.219 0.52 0.488 0.52zM43.775 17.992c0 0.287-0.219 0.52-0.488 0.52s-0.488-0.233-0.488-0.52 0.219-0.52 0.488-0.52c0.27 0 0.488 0.233 0.488 0.52zM44.508 17.732c0.27 0 0.488-0.233 0.488-0.52s-0.219-0.52-0.488-0.52c-0.27 0-0.488 0.233-0.488 0.52s0.219 0.52 0.488 0.52zM46.135 16.518c0 0.287-0.219 0.52-0.488 0.52s-0.488-0.233-0.488-0.52 0.219-0.52 0.488-0.52c0.27 0 0.488 0.233 0.488 0.52zM41.985 20.941c0.27 0 0.488-0.233 0.488-0.52s-0.219-0.52-0.488-0.52c-0.27 0-0.488 0.233-0.488 0.52s0.219 0.52 0.488 0.52zM43.531 19.727c0 0.287-0.219 0.52-0.488 0.52s-0.488-0.233-0.488-0.52 0.219-0.52 0.488-0.52c0.27 0 0.488 0.233 0.488 0.52zM44.264 19.467c0.27 0 0.488-0.233 0.488-0.52s-0.219-0.52-0.488-0.52c-0.27 0-0.488 0.233-0.488 0.52s0.219 0.52 0.488 0.52zM45.891 18.253c0 0.287-0.219 0.52-0.488 0.52s-0.488-0.233-0.488-0.52c0-0.287 0.218-0.52 0.488-0.52s0.488 0.233 0.488 0.52zM41.66 22.762c0.27 0 0.488-0.233 0.488-0.52s-0.219-0.52-0.488-0.52c-0.27 0-0.488 0.233-0.488 0.52s0.219 0.52 0.488 0.52zM43.206 21.548c0 0.287-0.219 0.52-0.488 0.52s-0.488-0.233-0.488-0.52c0-0.287 0.219-0.52 0.488-0.52s0.488 0.233 0.488 0.52zM43.938 21.288c0.27 0 0.488-0.233 0.488-0.52s-0.219-0.52-0.488-0.52c-0.27 0-0.488 0.233-0.488 0.52s0.219 0.52 0.488 0.52zM45.566 20.074c0 0.287-0.219 0.52-0.488 0.52s-0.488-0.233-0.488-0.52c0-0.287 0.219-0.52 0.488-0.52s0.488 0.233 0.488 0.52zM41.497 24.236c0.27 0 0.488-0.233 0.488-0.52s-0.219-0.52-0.488-0.52c-0.27 0-0.488 0.233-0.488 0.52s0.219 0.52 0.488 0.52zM43.043 23.022c0 0.287-0.219 0.52-0.488 0.52s-0.488-0.233-0.488-0.52c0-0.287 0.219-0.52 0.488-0.52s0.488 0.233 0.488 0.52zM43.775 22.762c0.27 0 0.488-0.233 0.488-0.52s-0.219-0.52-0.488-0.52c-0.27 0-0.488 0.233-0.488 0.52s0.219 0.52 0.488 0.52zM45.403 21.548c0 0.287-0.218 0.52-0.488 0.52s-0.488-0.233-0.488-0.52c0-0.287 0.219-0.52 0.488-0.52s0.488 0.233 0.488 0.52zM41.334 25.797c0.27 0 0.488-0.233 0.488-0.52s-0.219-0.52-0.488-0.52c-0.27 0-0.488 0.233-0.488 0.52s0.219 0.52 0.488 0.52zM42.88 24.583c0 0.287-0.219 0.52-0.488 0.52s-0.488-0.233-0.488-0.52c0-0.287 0.219-0.52 0.488-0.52s0.488 0.233 0.488 0.52zM43.613 24.323c0.27 0 0.488-0.233 0.488-0.52s-0.219-0.52-0.488-0.52c-0.27 0-0.488 0.233-0.488 0.52s0.219 0.52 0.488 0.52zM45.24 23.109c0 0.287-0.219 0.52-0.488 0.52s-0.488-0.233-0.488-0.52c0-0.287 0.219-0.52 0.488-0.52s0.488 0.233 0.488 0.52zM41.823 27.098c0.27 0 0.488-0.233 0.488-0.52s-0.219-0.52-0.488-0.52c-0.27 0-0.488 0.233-0.488 0.52s0.219 0.52 0.488 0.52zM43.369 25.884c0 0.287-0.219 0.52-0.488 0.52s-0.488-0.233-0.488-0.52c0-0.287 0.219-0.52 0.488-0.52s0.488 0.233 0.488 0.52zM44.101 25.624c0.27 0 0.488-0.233 0.488-0.52s-0.219-0.52-0.488-0.52c-0.27 0-0.488 0.233-0.488 0.52s0.219 0.52 0.488 0.52zM45.728 24.41c0 0.287-0.218 0.52-0.488 0.52s-0.488-0.233-0.488-0.52c0-0.287 0.219-0.52 0.488-0.52s0.488 0.233 0.488 0.52zM43.043 27.792c0.27 0 0.488-0.233 0.488-0.52s-0.219-0.52-0.488-0.52c-0.27 0-0.488 0.233-0.488 0.52s0.219 0.52 0.488 0.52zM44.589 26.578c0 0.287-0.219 0.52-0.488 0.52s-0.488-0.233-0.488-0.52c0-0.287 0.218-0.52 0.488-0.52s0.488 0.233 0.488 0.52zM45.321 26.318c0.27 0 0.488-0.233 0.488-0.52s-0.219-0.52-0.488-0.52c-0.27 0-0.488 0.233-0.488 0.52s0.218 0.52 0.488 0.52zM46.949 25.104c0 0.287-0.219 0.52-0.488 0.52s-0.488-0.233-0.488-0.52c0-0.287 0.219-0.52 0.488-0.52s0.488 0.233 0.488 0.52zM44.426 28.226c0.27 0 0.488-0.233 0.488-0.52s-0.219-0.52-0.488-0.52c-0.27 0-0.488 0.233-0.488 0.52s0.219 0.52 0.488 0.52zM45.972 27.011c0 0.287-0.219 0.52-0.488 0.52s-0.488-0.233-0.488-0.52c0-0.287 0.219-0.52 0.488-0.52s0.488 0.233 0.488 0.52zM46.705 26.751c0.27 0 0.488-0.233 0.488-0.52s-0.219-0.52-0.488-0.52c-0.27 0-0.488 0.233-0.488 0.52s0.219 0.52 0.488 0.52zM48.332 25.537c0 0.287-0.219 0.52-0.488 0.52s-0.488-0.233-0.488-0.52c0-0.287 0.219-0.52 0.488-0.52s0.488 0.233 0.488 0.52zM46.216 28.312c0.27 0 0.488-0.233 0.488-0.52s-0.219-0.52-0.488-0.52c-0.27 0-0.488 0.233-0.488 0.52s0.219 0.52 0.488 0.52zM47.762 27.098c0 0.287-0.219 0.52-0.488 0.52s-0.488-0.233-0.488-0.52c0-0.287 0.219-0.52 0.488-0.52s0.488 0.233 0.488 0.52zM48.495 26.838c0.27 0 0.488-0.233 0.488-0.52s-0.219-0.52-0.488-0.52c-0.27 0-0.488 0.233-0.488 0.52s0.219 0.52 0.488 0.52zM50.122 25.624c0 0.287-0.219 0.52-0.488 0.52s-0.488-0.233-0.488-0.52c0-0.287 0.218-0.52 0.488-0.52s0.488 0.233 0.488 0.52zM48.332 28.312c0.27 0 0.488-0.233 0.488-0.52s-0.219-0.52-0.488-0.52c-0.27 0-0.488 0.233-0.488 0.52s0.219 0.52 0.488 0.52zM49.662 27.53c-0.078 0.056-0.172 0.088-0.272 0.088-0.27 0-0.488-0.233-0.488-0.52s0.219-0.52 0.488-0.52c0.27 0 0.488 0.233 0.488 0.52 0 0.061-0.010 0.12-0.028 0.175 0.078-0.056 0.172-0.088 0.272-0.088 0.27 0 0.488 0.233 0.488 0.52s-0.219 0.52-0.488 0.52c-0.27 0-0.488-0.233-0.488-0.52 0-0.061 0.010-0.12 0.028-0.175zM50.61 26.838c0.039 0 0.078-0.005 0.114-0.014-0.021 0.058-0.033 0.122-0.033 0.188 0 0.287 0.219 0.52 0.488 0.52s0.488-0.233 0.488-0.52c0-0.287-0.219-0.52-0.488-0.52-0.039 0-0.077 0.005-0.114 0.014 0.021-0.058 0.033-0.122 0.033-0.188 0-0.287-0.219-0.52-0.488-0.52s-0.488 0.233-0.488 0.52c0 0.287 0.219 0.52 0.488 0.52zM51.925 26.109c-0.055 0.023-0.114 0.035-0.176 0.035-0.27 0-0.488-0.233-0.488-0.52s0.219-0.52 0.488-0.52c0.27 0 0.488 0.233 0.488 0.52 0 0.042-0.005 0.083-0.013 0.122 0.055-0.023 0.114-0.035 0.176-0.035 0.27 0 0.488 0.233 0.488 0.52s-0.219 0.52-0.488 0.52c-0.27 0-0.488-0.233-0.488-0.52 0-0.042 0.005-0.083 0.013-0.122zM53.915 25.87c-0.090 0.115-0.224 0.187-0.375 0.187-0.27 0-0.488-0.233-0.488-0.52s0.219-0.52 0.488-0.52c0.039 0 0.077 0.005 0.113 0.014 0.090-0.115 0.224-0.188 0.375-0.188 0.27 0 0.488 0.233 0.488 0.52 0 0.095-0.024 0.184-0.065 0.261 0.262 0.009 0.472 0.238 0.472 0.52 0 0.287-0.219 0.52-0.488 0.52s-0.488-0.233-0.488-0.52c0-0.095 0.024-0.184 0.066-0.26-0.033-0.001-0.066-0.006-0.097-0.014zM52.156 28.139c0.27 0 0.488-0.233 0.488-0.52s-0.219-0.52-0.488-0.52c-0.27 0-0.488 0.233-0.488 0.52s0.219 0.52 0.488 0.52zM53.702 26.925c0 0.287-0.219 0.52-0.488 0.52s-0.488-0.233-0.488-0.52 0.219-0.52 0.488-0.52c0.27 0 0.488 0.233 0.488 0.52zM56.062 25.45c0 0.287-0.219 0.52-0.488 0.52s-0.488-0.233-0.488-0.52c0-0.097 0.025-0.188 0.068-0.265-0.022 0.003-0.045 0.005-0.068 0.005-0.27 0-0.488-0.233-0.488-0.52s0.218-0.52 0.488-0.52c0.27 0 0.488 0.233 0.488 0.52 0 0.097-0.025 0.188-0.068 0.265 0.022-0.003 0.045-0.005 0.068-0.005 0.27 0 0.488 0.233 0.488 0.52zM56.306 24.41c0.27 0 0.488-0.233 0.488-0.52s-0.219-0.52-0.488-0.52c-0.27 0-0.488 0.233-0.488 0.52s0.219 0.52 0.488 0.52zM57.933 23.196c0 0.287-0.219 0.52-0.488 0.52s-0.488-0.233-0.488-0.52c0-0.287 0.219-0.52 0.488-0.52s0.488 0.233 0.488 0.52zM59.826 23.138c0.267-0.044 0.45-0.309 0.409-0.593s-0.29-0.479-0.556-0.435c-0.267 0.044-0.45 0.309-0.409 0.593s0.29 0.479 0.556 0.435zM59.207 23.414c0.041 0.284-0.142 0.549-0.409 0.593s-0.516-0.151-0.556-0.435c-0.041-0.284 0.142-0.549 0.409-0.593s0.516 0.151 0.556 0.435zM57.703 24.975c0.267-0.044 0.449-0.309 0.409-0.593s-0.29-0.479-0.557-0.435-0.449 0.309-0.409 0.593c0.041 0.284 0.29 0.479 0.557 0.435zM56.757 25.83c0.267-0.044 0.449-0.309 0.409-0.593s-0.29-0.479-0.557-0.435c-0.267 0.044-0.449 0.309-0.409 0.593s0.29 0.479 0.557 0.435zM82.262 23.418c0 0.287-0.219 0.52-0.488 0.52s-0.488-0.233-0.488-0.52c0-0.287 0.219-0.52 0.488-0.52s0.488 0.233 0.488 0.52zM84.296 23.504c0 0.287-0.218 0.52-0.487 0.52s-0.489-0.233-0.489-0.52 0.219-0.52 0.489-0.52c0.269 0 0.487 0.233 0.487 0.52zM82.669 24.717c0.27 0 0.488-0.233 0.488-0.52s-0.219-0.52-0.488-0.52c-0.27 0-0.488 0.233-0.488 0.52s0.219 0.52 0.488 0.52zM81.936 24.977c0 0.287-0.219 0.52-0.488 0.52s-0.488-0.233-0.488-0.52c0-0.287 0.219-0.52 0.488-0.52s0.488 0.233 0.488 0.52zM80.391 26.19c0.27 0 0.488-0.233 0.488-0.52s-0.219-0.52-0.488-0.52c-0.27 0-0.488 0.233-0.488 0.52s0.219 0.52 0.488 0.52zM96.176 28.79c0.269 0 0.488-0.233 0.488-0.52s-0.219-0.52-0.488-0.52c-0.27 0-0.488 0.233-0.488 0.52s0.218 0.52 0.488 0.52zM93.897 29.136c0.27 0 0.488-0.233 0.488-0.52s-0.218-0.52-0.488-0.52-0.488 0.233-0.488 0.52c0 0.287 0.218 0.52 0.488 0.52zM91.537 29.396c0.27 0 0.488-0.233 0.488-0.52s-0.218-0.52-0.488-0.52c-0.269 0-0.487 0.233-0.487 0.52s0.218 0.52 0.487 0.52zM88.772 29.743c0.269 0 0.487-0.233 0.487-0.52s-0.218-0.52-0.487-0.52c-0.27 0-0.488 0.233-0.488 0.52s0.218 0.52 0.488 0.52zM88.12 29.916c0 0.287-0.218 0.52-0.487 0.52s-0.488-0.233-0.488-0.52c0-0.287 0.218-0.52 0.488-0.52s0.487 0.233 0.487 0.52zM86.412 31.216c0.27 0 0.488-0.233 0.488-0.52s-0.218-0.52-0.488-0.52-0.488 0.233-0.488 0.52c0 0.287 0.218 0.52 0.488 0.52zM85.354 31.909c0.269 0 0.488-0.233 0.488-0.52s-0.219-0.52-0.488-0.52c-0.27 0-0.488 0.233-0.488 0.52s0.218 0.52 0.488 0.52zM88.608 31.043c0 0.287-0.218 0.52-0.488 0.52s-0.487-0.233-0.487-0.52c0-0.287 0.218-0.52 0.487-0.52s0.488 0.233 0.488 0.52zM89.178 30.869c0.269 0 0.488-0.233 0.488-0.52s-0.219-0.52-0.488-0.52c-0.27 0-0.488 0.233-0.488 0.52s0.218 0.52 0.488 0.52zM90.887 29.57c0 0.287-0.218 0.52-0.488 0.52s-0.487-0.233-0.487-0.52 0.218-0.52 0.487-0.52c0.27 0 0.488 0.233 0.488 0.52zM90.968 30.783c0 0.287-0.218 0.52-0.488 0.52s-0.488-0.233-0.488-0.52c0-0.287 0.219-0.52 0.488-0.52s0.488 0.233 0.488 0.52zM91.537 30.61c0.27 0 0.488-0.233 0.488-0.52s-0.218-0.52-0.488-0.52c-0.269 0-0.487 0.233-0.487 0.52s0.218 0.52 0.487 0.52zM93.247 29.31c0 0.287-0.218 0.52-0.488 0.52s-0.488-0.233-0.488-0.52c0-0.287 0.219-0.52 0.488-0.52s0.488 0.233 0.488 0.52zM93.247 30.436c0 0.287-0.218 0.52-0.488 0.52s-0.488-0.233-0.488-0.52 0.219-0.52 0.488-0.52c0.27 0 0.488 0.233 0.488 0.52zM93.816 30.263c0.27 0 0.488-0.233 0.488-0.52s-0.218-0.52-0.488-0.52c-0.269 0-0.487 0.233-0.487 0.52s0.218 0.52 0.487 0.52zM95.525 28.963c0 0.287-0.218 0.52-0.488 0.52s-0.488-0.233-0.488-0.52c0-0.287 0.218-0.52 0.488-0.52s0.488 0.233 0.488 0.52zM93.979 31.389c0 0.287-0.219 0.52-0.488 0.52s-0.488-0.233-0.488-0.52c0-0.287 0.218-0.52 0.488-0.52s0.488 0.233 0.488 0.52zM94.548 31.216c0.27 0 0.488-0.233 0.488-0.52s-0.218-0.52-0.488-0.52c-0.269 0-0.488 0.233-0.488 0.52s0.219 0.52 0.488 0.52zM96.501 31.476c0 0.287-0.218 0.52-0.487 0.52s-0.488-0.233-0.488-0.52c0-0.287 0.218-0.52 0.488-0.52s0.487 0.233 0.487 0.52zM95.769 30.436c0.269 0 0.487-0.233 0.487-0.52s-0.218-0.52-0.487-0.52c-0.27 0-0.488 0.233-0.488 0.52s0.218 0.52 0.488 0.52zM97.722 30.696c0 0.287-0.218 0.52-0.488 0.52s-0.488-0.233-0.488-0.52c0-0.287 0.219-0.52 0.488-0.52s0.488 0.233 0.488 0.52zM98.373 31.996c0.27 0 0.488-0.233 0.488-0.52s-0.218-0.52-0.488-0.52c-0.269 0-0.488 0.233-0.488 0.52s0.219 0.52 0.488 0.52zM97.396 29.223c0 0.287-0.218 0.52-0.487 0.52s-0.488-0.233-0.488-0.52c0-0.287 0.218-0.52 0.488-0.52s0.487 0.233 0.487 0.52zM98.373 30.523c0.27 0 0.488-0.233 0.488-0.52s-0.218-0.52-0.488-0.52c-0.269 0-0.488 0.233-0.488 0.52s0.219 0.52 0.488 0.52zM100 30.783c0 0.287-0.218 0.52-0.488 0.52s-0.488-0.233-0.488-0.52c0-0.287 0.219-0.52 0.488-0.52s0.488 0.233 0.488 0.52zM78.839 25.662c-0.035 0.25-0.238 0.442-0.483 0.442-0.27 0-0.488-0.233-0.488-0.52s0.219-0.52 0.488-0.52c0.030 0 0.059 0.003 0.087 0.008 0.035-0.25 0.238-0.442 0.483-0.442 0.021 0 0.042 0.002 0.063 0.004 0.084-0.158 0.243-0.264 0.425-0.264 0.27 0 0.488 0.233 0.488 0.52s-0.219 0.52-0.488 0.52c-0.021 0-0.042-0.002-0.063-0.004-0.084 0.158-0.243 0.264-0.425 0.264-0.030 0-0.059-0.003-0.087-0.008zM80.635 24.631c0.27 0 0.488-0.233 0.488-0.52s-0.219-0.52-0.488-0.52c-0.27 0-0.488 0.233-0.488 0.52s0.219 0.52 0.488 0.52zM82.913 31.909c0.27 0 0.488-0.233 0.488-0.52s-0.218-0.52-0.488-0.52c-0.27 0-0.488 0.233-0.488 0.52s0.219 0.52 0.488 0.52zM84.459 30.696c0 0.287-0.219 0.52-0.488 0.52s-0.488-0.233-0.488-0.52c0-0.287 0.218-0.52 0.488-0.52s0.488 0.233 0.488 0.52zM85.191 30.436c0.27 0 0.488-0.233 0.488-0.52s-0.218-0.52-0.488-0.52c-0.269 0-0.487 0.233-0.487 0.52s0.218 0.52 0.487 0.52zM86.818 29.223c0 0.287-0.218 0.52-0.488 0.52s-0.487-0.233-0.487-0.52c0-0.287 0.218-0.52 0.487-0.52s0.488 0.233 0.488 0.52zM81.611 31.389c0.27 0 0.488-0.233 0.488-0.52s-0.219-0.52-0.488-0.52c-0.27 0-0.488 0.233-0.488 0.52s0.219 0.52 0.488 0.52zM83.157 30.176c0 0.287-0.219 0.52-0.488 0.52s-0.488-0.233-0.488-0.52c0-0.287 0.219-0.52 0.488-0.52s0.488 0.233 0.488 0.52zM83.889 29.916c0.27 0 0.488-0.233 0.488-0.52s-0.218-0.52-0.488-0.52c-0.269 0-0.488 0.233-0.488 0.52s0.219 0.52 0.488 0.52zM85.517 28.703c0 0.287-0.218 0.52-0.488 0.52s-0.488-0.233-0.488-0.52 0.219-0.52 0.488-0.52c0.27 0 0.488 0.233 0.488 0.52zM82.099 29.57c0.27 0 0.488-0.233 0.488-0.52s-0.219-0.52-0.488-0.52c-0.27 0-0.488 0.233-0.488 0.52s0.219 0.52 0.488 0.52zM83.645 28.357c0 0.287-0.218 0.52-0.488 0.52s-0.488-0.233-0.488-0.52 0.219-0.52 0.488-0.52c0.27 0 0.488 0.233 0.488 0.52zM84.377 28.097c0.27 0 0.488-0.233 0.488-0.52s-0.218-0.52-0.488-0.52c-0.269 0-0.488 0.233-0.488 0.52s0.219 0.52 0.488 0.52zM86.005 26.884c0 0.287-0.218 0.52-0.488 0.52s-0.488-0.233-0.488-0.52c0-0.287 0.218-0.52 0.488-0.52s0.488 0.233 0.488 0.52zM79.007 24.197c0.27 0 0.488-0.233 0.488-0.52s-0.219-0.52-0.488-0.52c-0.27 0-0.488 0.233-0.488 0.52s0.219 0.52 0.488 0.52zM86.005 23.851c0 0.287-0.218 0.52-0.488 0.52s-0.488-0.233-0.488-0.52c0-0.287 0.218-0.52 0.488-0.52s0.488 0.233 0.488 0.52zM84.377 25.064c0.27 0 0.488-0.233 0.488-0.52s-0.218-0.52-0.488-0.52c-0.269 0-0.488 0.233-0.488 0.52s0.219 0.52 0.488 0.52zM83.645 25.324c0 0.287-0.218 0.52-0.488 0.52s-0.488-0.233-0.488-0.52c0-0.287 0.219-0.52 0.488-0.52s0.488 0.233 0.488 0.52zM82.588 26.017c0 0.287-0.219 0.52-0.488 0.52s-0.488-0.233-0.488-0.52c0-0.287 0.219-0.52 0.488-0.52s0.488 0.233 0.488 0.52zM81.855 28.183c0.27 0 0.488-0.233 0.488-0.52s-0.219-0.52-0.488-0.52c-0.27 0-0.488 0.233-0.488 0.52s0.219 0.52 0.488 0.52zM83.401 26.97c0 0.287-0.218 0.52-0.488 0.52s-0.488-0.233-0.488-0.52 0.219-0.52 0.488-0.52c0.27 0 0.488 0.233 0.488 0.52zM84.133 26.71c0.27 0 0.488-0.233 0.488-0.52s-0.218-0.52-0.488-0.52c-0.269 0-0.488 0.233-0.488 0.52s0.219 0.52 0.488 0.52zM85.761 25.497c0 0.287-0.218 0.52-0.488 0.52s-0.488-0.233-0.488-0.52c0-0.287 0.219-0.52 0.488-0.52s0.488 0.233 0.488 0.52zM76.729 25.67c0.27 0 0.488-0.233 0.488-0.52s-0.219-0.52-0.488-0.52c-0.27 0-0.488 0.233-0.488 0.52s0.219 0.52 0.488 0.52zM78.275 24.457c0 0.287-0.219 0.52-0.488 0.52s-0.488-0.233-0.488-0.52c0-0.287 0.219-0.52 0.488-0.52s0.488 0.233 0.488 0.52zM13.832 27.098c0.27 0 0.488-0.233 0.488-0.52s-0.219-0.52-0.488-0.52c-0.27 0-0.488 0.233-0.488 0.52s0.219 0.52 0.488 0.52zM13.1 27.618c0 0.287-0.219 0.52-0.488 0.52s-0.488-0.233-0.488-0.52c0-0.287 0.219-0.52 0.488-0.52s0.488 0.233 0.488 0.52zM4.394 27.705c0 0.287-0.219 0.52-0.488 0.52s-0.488-0.233-0.488-0.52c0-0.287 0.219-0.52 0.488-0.52s0.488 0.233 0.488 0.52zM2.766 28.919c0.27 0 0.488-0.233 0.488-0.52s-0.219-0.52-0.488-0.52-0.488 0.233-0.488 0.52c0 0.287 0.219 0.52 0.488 0.52zM2.034 29.179c0 0.287-0.219 0.52-0.488 0.52s-0.488-0.233-0.488-0.52c0-0.287 0.219-0.52 0.488-0.52s0.488 0.233 0.488 0.52zM0.976 29.873c0 0.287-0.219 0.52-0.488 0.52s-0.488-0.233-0.488-0.52c0-0.287 0.219-0.52 0.488-0.52s0.488 0.233 0.488 0.52zM6.672 30.654c0.27 0 0.488-0.233 0.488-0.52s-0.219-0.52-0.488-0.52-0.488 0.233-0.488 0.52c0 0.287 0.219 0.52 0.488 0.52zM8.218 29.44c0 0.287-0.219 0.52-0.488 0.52s-0.488-0.233-0.488-0.52c0-0.287 0.219-0.52 0.488-0.52s0.488 0.233 0.488 0.52zM8.95 29.179c0.27 0 0.488-0.233 0.488-0.52s-0.219-0.52-0.488-0.52c-0.27 0-0.488 0.233-0.488 0.52s0.219 0.52 0.488 0.52zM10.578 27.965c0 0.287-0.219 0.52-0.488 0.52s-0.488-0.233-0.488-0.52c0-0.287 0.219-0.52 0.488-0.52s0.488 0.233 0.488 0.52zM9.194 30.307c0.27 0 0.488-0.233 0.488-0.52s-0.219-0.52-0.488-0.52c-0.27 0-0.488 0.233-0.488 0.52s0.219 0.52 0.488 0.52zM10.741 29.093c0 0.287-0.219 0.52-0.488 0.52s-0.488-0.233-0.488-0.52c0-0.287 0.219-0.52 0.488-0.52s0.488 0.233 0.488 0.52zM11.473 28.832c0.27 0 0.488-0.233 0.488-0.52s-0.219-0.52-0.488-0.52c-0.27 0-0.488 0.233-0.488 0.52s0.219 0.52 0.488 0.52zM11.717 27.185c0 0.287-0.219 0.52-0.488 0.52s-0.488-0.233-0.488-0.52 0.219-0.52 0.488-0.52c0.27 0 0.488 0.233 0.488 0.52zM6.265 27.792c0 0.287-0.219 0.52-0.488 0.52s-0.488-0.233-0.488-0.52c0-0.287 0.219-0.52 0.488-0.52s0.488 0.233 0.488 0.52zM8.299 27.879c0 0.287-0.219 0.52-0.488 0.52s-0.488-0.233-0.488-0.52c0-0.287 0.219-0.52 0.488-0.52s0.488 0.233 0.488 0.52zM6.672 29.093c0.27 0 0.488-0.233 0.488-0.52s-0.219-0.52-0.488-0.52-0.488 0.233-0.488 0.52c0 0.287 0.219 0.52 0.488 0.52zM5.94 29.353c0 0.287-0.219 0.52-0.488 0.52s-0.488-0.233-0.488-0.52c0-0.287 0.219-0.52 0.488-0.52s0.488 0.233 0.488 0.52zM4.882 30.047c0 0.287-0.219 0.52-0.488 0.52s-0.488-0.233-0.488-0.52c0-0.287 0.219-0.52 0.488-0.52s0.488 0.233 0.488 0.52zM2.36 30.48c0.27 0 0.488-0.233 0.488-0.52s-0.219-0.52-0.488-0.52-0.488 0.233-0.488 0.52c0 0.287 0.219 0.52 0.488 0.52zM3.906 29.266c0 0.287-0.219 0.52-0.488 0.52s-0.488-0.233-0.488-0.52c0-0.287 0.219-0.52 0.488-0.52s0.488 0.233 0.488 0.52zM4.638 29.006c0.27 0 0.488-0.233 0.488-0.52s-0.219-0.52-0.488-0.52-0.488 0.233-0.488 0.52c0 0.287 0.219 0.52 0.488 0.52z"></path>
</symbol>
<symbol id="dots-mobile" viewBox="0 0 205 32">
<path d="M156.54 29.616c0 0.982-0.745 1.778-1.664 1.778s-1.664-0.796-1.664-1.778c0-0.982 0.745-1.778 1.664-1.778s1.664 0.796 1.664 1.778z"></path>
<path d="M160.146 27.245c0 0.982-0.745 1.778-1.664 1.778s-1.664-0.796-1.664-1.778c0-0.982 0.745-1.778 1.664-1.778s1.664 0.796 1.664 1.778z"></path>
<path d="M164.305 24.578c0 0.982-0.745 1.778-1.664 1.778s-1.664-0.796-1.664-1.778c0-0.982 0.745-1.778 1.664-1.778s1.664 0.796 1.664 1.778z"></path>
<path d="M168.189 22.206c0 0.982-0.745 1.778-1.664 1.778s-1.664-0.796-1.664-1.778c0-0.982 0.745-1.778 1.664-1.778s1.664 0.796 1.664 1.778z"></path>
<path d="M165.969 28.431c0 0.982-0.745 1.778-1.664 1.778s-1.664-0.796-1.664-1.778c0-0.982 0.745-1.778 1.664-1.778s1.664 0.796 1.664 1.778z"></path>
<path d="M169.575 26.060c0 0.982-0.745 1.778-1.664 1.778s-1.664-0.796-1.664-1.778c0-0.982 0.745-1.778 1.664-1.778s1.664 0.796 1.664 1.778z"></path>
<path d="M173.735 23.392c0 0.982-0.745 1.778-1.664 1.778s-1.664-0.796-1.664-1.778c0-0.982 0.745-1.778 1.664-1.778s1.664 0.796 1.664 1.778z"></path>
<path d="M177.619 21.021c0 0.982-0.745 1.778-1.664 1.778s-1.664-0.796-1.664-1.778c0-0.982 0.745-1.778 1.664-1.778s1.664 0.796 1.664 1.778z"></path>
<path d="M174.014 27.542c0 0.982-0.745 1.778-1.664 1.778s-1.664-0.796-1.664-1.778c0-0.982 0.745-1.778 1.664-1.778s1.664 0.796 1.664 1.778z"></path>
<path d="M177.619 25.171c0 0.982-0.745 1.778-1.664 1.778s-1.664-0.796-1.664-1.778c0-0.982 0.745-1.778 1.664-1.778s1.664 0.796 1.664 1.778z"></path>
<path d="M181.779 22.503c0 0.982-0.745 1.778-1.664 1.778s-1.664-0.796-1.664-1.778c0-0.982 0.745-1.778 1.664-1.778s1.664 0.796 1.664 1.778z"></path>
<path d="M185.662 20.132c0 0.982-0.745 1.778-1.664 1.778s-1.664-0.796-1.664-1.778c0-0.982 0.745-1.778 1.664-1.778s1.664 0.796 1.664 1.778z"></path>
<path d="M181.778 26.356c0 0.982-0.745 1.778-1.664 1.778s-1.664-0.796-1.664-1.778c0-0.982 0.745-1.778 1.664-1.778s1.664 0.796 1.664 1.778z"></path>
<path d="M185.383 23.985c0 0.982-0.745 1.778-1.664 1.778s-1.664-0.796-1.664-1.778c0-0.982 0.745-1.778 1.664-1.778s1.664 0.796 1.664 1.778z"></path>
<path d="M189.543 21.318c0 0.982-0.745 1.778-1.664 1.778s-1.664-0.796-1.664-1.778c0-0.982 0.745-1.778 1.664-1.778s1.664 0.796 1.664 1.778z"></path>
<path d="M193.427 18.947c0 0.982-0.745 1.778-1.664 1.778s-1.664-0.796-1.664-1.778c0-0.982 0.745-1.778 1.664-1.778s1.664 0.796 1.664 1.778z"></path>
<path d="M184.276 29.616c0 0.982-0.745 1.778-1.664 1.778s-1.664-0.796-1.664-1.778c0-0.982 0.745-1.778 1.664-1.778s1.664 0.796 1.664 1.778z"></path>
<path d="M187.882 27.245c0 0.982-0.745 1.778-1.664 1.778s-1.664-0.796-1.664-1.778c0-0.982 0.745-1.778 1.664-1.778s1.664 0.796 1.664 1.778z"></path>
<path d="M192.874 29.913c0 0.982-0.745 1.778-1.664 1.778s-1.664-0.796-1.664-1.778c0-0.982 0.745-1.778 1.664-1.778s1.664 0.796 1.664 1.778z"></path>
<path d="M192.042 24.578c0 0.982-0.745 1.778-1.664 1.778s-1.664-0.796-1.664-1.778c0-0.982 0.745-1.778 1.664-1.778s1.664 0.796 1.664 1.778z"></path>
<path d="M197.034 27.245c0 0.982-0.745 1.778-1.664 1.778s-1.664-0.796-1.664-1.778c0-0.982 0.745-1.778 1.664-1.778s1.664 0.796 1.664 1.778z"></path>
<path d="M200.918 29.913c0 0.982-0.745 1.778-1.664 1.778s-1.664-0.796-1.664-1.778c0-0.982 0.745-1.778 1.664-1.778s1.664 0.796 1.664 1.778z"></path>
<path d="M195.925 22.206c0 0.982-0.745 1.778-1.664 1.778s-1.664-0.796-1.664-1.778c0-0.982 0.745-1.778 1.664-1.778s1.664 0.796 1.664 1.778z"></path>
<path d="M200.918 24.874c0 0.982-0.745 1.778-1.664 1.778s-1.664-0.796-1.664-1.778c0-0.982 0.745-1.778 1.664-1.778s1.664 0.796 1.664 1.778z"></path>
<path d="M204.801 27.542c0 0.982-0.745 1.778-1.664 1.778s-1.664-0.796-1.664-1.778c0-0.982 0.745-1.778 1.664-1.778s1.664 0.796 1.664 1.778z"></path>
<path d="M139.622 10.055c0 0.982-0.745 1.778-1.664 1.778s-1.664-0.796-1.664-1.778c0-0.982 0.745-1.778 1.664-1.778s1.664 0.796 1.664 1.778z"></path>
<path d="M143.227 7.684c0 0.982-0.745 1.778-1.664 1.778s-1.664-0.796-1.664-1.778c0-0.982 0.745-1.778 1.664-1.778s1.664 0.796 1.664 1.778z"></path>
<path d="M147.388 5.016c0 0.982-0.745 1.778-1.664 1.778s-1.664-0.796-1.664-1.778c0-0.982 0.745-1.778 1.664-1.778s1.664 0.796 1.664 1.778z"></path>
<path d="M151.27 2.645c0 0.982-0.745 1.778-1.664 1.778s-1.664-0.796-1.664-1.778c0-0.982 0.745-1.778 1.664-1.778s1.664 0.796 1.664 1.778z"></path>
<path d="M132.687 9.758c0 0.982-0.745 1.778-1.664 1.778s-1.664-0.796-1.664-1.778c0-0.982 0.745-1.778 1.664-1.778s1.664 0.796 1.664 1.778z"></path>
<path d="M136.293 7.387c0 0.982-0.745 1.778-1.664 1.778s-1.664-0.796-1.664-1.778c0-0.982 0.745-1.778 1.664-1.778s1.664 0.796 1.664 1.778z"></path>
<path d="M140.453 4.72c0 0.982-0.745 1.778-1.664 1.778s-1.664-0.796-1.664-1.778c0-0.982 0.745-1.778 1.664-1.778s1.664 0.796 1.664 1.778z"></path>
<path d="M144.335 2.349c0 0.982-0.745 1.778-1.664 1.778s-1.664-0.796-1.664-1.778c0-0.982 0.745-1.778 1.664-1.778s1.664 0.796 1.664 1.778z"></path>
<path d="M148.219 29.616c0 0.982-0.745 1.778-1.664 1.778s-1.664-0.796-1.664-1.778c0-0.982 0.745-1.778 1.664-1.778s1.664 0.796 1.664 1.778z"></path>
<path d="M151.824 27.245c0 0.982-0.745 1.778-1.664 1.778s-1.664-0.796-1.664-1.778c0-0.982 0.745-1.778 1.664-1.778s1.664 0.796 1.664 1.778z"></path>
<path d="M155.984 24.578c0 0.982-0.745 1.778-1.664 1.778s-1.664-0.796-1.664-1.778c0-0.982 0.745-1.778 1.664-1.778s1.664 0.796 1.664 1.778z"></path>
<path d="M159.868 22.206c0 0.982-0.745 1.778-1.664 1.778s-1.664-0.796-1.664-1.778c0-0.982 0.745-1.778 1.664-1.778s1.664 0.796 1.664 1.778z"></path>
<path d="M143.781 27.838c0 0.982-0.745 1.778-1.664 1.778s-1.664-0.796-1.664-1.778c0-0.982 0.745-1.778 1.664-1.778s1.664 0.796 1.664 1.778z"></path>
<path d="M147.387 25.467c0 0.982-0.745 1.778-1.664 1.778s-1.664-0.796-1.664-1.778c0-0.982 0.745-1.778 1.664-1.778s1.664 0.796 1.664 1.778z"></path>
<path d="M151.547 22.8c0 0.982-0.745 1.778-1.664 1.778s-1.664-0.796-1.664-1.778c0-0.982 0.745-1.778 1.664-1.778s1.664 0.796 1.664 1.778z"></path>
<path d="M155.43 20.429c0 0.982-0.745 1.778-1.664 1.778s-1.664-0.796-1.664-1.778c0-0.982 0.745-1.778 1.664-1.778s1.664 0.796 1.664 1.778z"></path>
<path d="M145.446 21.614c0 0.982-0.745 1.778-1.664 1.778s-1.664-0.796-1.664-1.778c0-0.982 0.745-1.778 1.664-1.778s1.664 0.796 1.664 1.778z"></path>
<path d="M149.051 19.243c0 0.982-0.745 1.778-1.664 1.778s-1.664-0.796-1.664-1.778c0-0.982 0.745-1.778 1.664-1.778s1.664 0.796 1.664 1.778z"></path>
<path d="M153.212 16.575c0 0.982-0.745 1.778-1.664 1.778s-1.664-0.796-1.664-1.778c0-0.982 0.745-1.778 1.664-1.778s1.664 0.796 1.664 1.778z"></path>
<path d="M157.095 14.204c0 0.982-0.745 1.778-1.664 1.778s-1.664-0.796-1.664-1.778c0-0.982 0.745-1.778 1.664-1.778s1.664 0.796 1.664 1.778z"></path>
<path d="M145.446 11.24c0 0.982-0.745 1.778-1.664 1.778s-1.664-0.796-1.664-1.778c0-0.982 0.745-1.778 1.664-1.778s1.664 0.796 1.664 1.778z"></path>
<path d="M149.051 8.869c0 0.982-0.745 1.778-1.664 1.778s-1.664-0.796-1.664-1.778c0-0.982 0.745-1.778 1.664-1.778s1.664 0.796 1.664 1.778z"></path>
<path d="M153.212 6.202c0 0.982-0.745 1.778-1.664 1.778s-1.664-0.796-1.664-1.778c0-0.982 0.745-1.778 1.664-1.778s1.664 0.796 1.664 1.778z"></path>
<path d="M157.095 3.831c0 0.982-0.745 1.778-1.664 1.778s-1.664-0.796-1.664-1.778c0-0.982 0.745-1.778 1.664-1.778s1.664 0.796 1.664 1.778z"></path>
<path d="M144.613 16.872c0 0.982-0.745 1.778-1.664 1.778s-1.664-0.796-1.664-1.778c0-0.982 0.745-1.778 1.664-1.778s1.664 0.796 1.664 1.778z"></path>
<path d="M148.22 14.501c0 0.982-0.745 1.778-1.664 1.778s-1.664-0.796-1.664-1.778c0-0.982 0.745-1.778 1.664-1.778s1.664 0.796 1.664 1.778z"></path>
<path d="M152.379 11.833c0 0.982-0.745 1.778-1.664 1.778s-1.664-0.796-1.664-1.778c0-0.982 0.745-1.778 1.664-1.778s1.664 0.796 1.664 1.778z"></path>
<path d="M156.262 9.462c0 0.982-0.745 1.778-1.664 1.778s-1.664-0.796-1.664-1.778c0-0.982 0.745-1.778 1.664-1.778s1.664 0.796 1.664 1.778z"></path>
<path d="M127.14 8.276c0 0.982-0.745 1.778-1.664 1.778s-1.664-0.796-1.664-1.778c0-0.982 0.745-1.778 1.664-1.778s1.664 0.796 1.664 1.778z"></path>
<path d="M130.746 5.905c0 0.982-0.745 1.778-1.664 1.778s-1.664-0.796-1.664-1.778c0-0.982 0.745-1.778 1.664-1.778s1.664 0.796 1.664 1.778z"></path>
<path d="M134.906 3.238c0 0.982-0.745 1.778-1.664 1.778s-1.664-0.796-1.664-1.778c0-0.982 0.745-1.778 1.664-1.778s1.664 0.796 1.664 1.778z"></path>
<path d="M132.964 10.055c0.919 0 1.665-0.796 1.665-1.778s-0.746-1.778-1.665-1.778c-0.919 0-1.664 0.796-1.664 1.778s0.745 1.778 1.664 1.778z"></path>
<path d="M56.441 21.475c0.141 0.985-0.491 1.906-1.413 2.057s-1.784-0.525-1.925-1.51c-0.141-0.985 0.491-1.906 1.413-2.057s1.784 0.525 1.925 1.51z"></path>
<path d="M59.717 18.504c0.141 0.985-0.491 1.906-1.413 2.057s-1.784-0.525-1.925-1.51c-0.141-0.985 0.491-1.906 1.413-2.057s1.784 0.525 1.925 1.51z"></path>
<path d="M63.506 15.144c0.141 0.985-0.491 1.906-1.413 2.057s-1.784-0.525-1.925-1.51c-0.141-0.985 0.491-1.906 1.413-2.057s1.784 0.525 1.925 1.51z"></path>
<path d="M67.060 12.128c0.141 0.985-0.491 1.906-1.413 2.057s-1.784-0.525-1.925-1.51c-0.141-0.985 0.491-1.906 1.413-2.057s1.784 0.525 1.925 1.51z"></path>
<path d="M3.481 21.473c0 0.997-0.779 1.805-1.741 1.805s-1.741-0.808-1.741-1.805c0-0.997 0.779-1.805 1.741-1.805s1.741 0.808 1.741 1.805z"></path>
<path d="M7.252 19.067c0 0.997-0.779 1.805-1.741 1.805s-1.741-0.808-1.741-1.805c0-0.997 0.779-1.805 1.741-1.805s1.741 0.808 1.741 1.805z"></path>
<path d="M11.605 16.36c0 0.997-0.779 1.805-1.741 1.805s-1.741-0.808-1.741-1.805c0-0.997 0.779-1.805 1.741-1.805s1.741 0.808 1.741 1.805z"></path>
<path d="M15.666 13.953c0 0.997-0.779 1.805-1.741 1.805s-1.741-0.808-1.741-1.805c0-0.997 0.779-1.805 1.741-1.805s1.741 0.808 1.741 1.805z"></path>
<path d="M5.223 25.984c0 0.997-0.779 1.805-1.741 1.805s-1.741-0.808-1.741-1.805c0-0.997 0.779-1.805 1.741-1.805s1.741 0.808 1.741 1.805z"></path>
<path d="M8.994 23.578c0 0.997-0.779 1.805-1.741 1.805s-1.741-0.808-1.741-1.805c0-0.997 0.779-1.805 1.741-1.805s1.741 0.808 1.741 1.805z"></path>
<path d="M13.346 20.871c0 0.997-0.779 1.805-1.741 1.805s-1.741-0.808-1.741-1.805c0-0.997 0.779-1.805 1.741-1.805s1.741 0.808 1.741 1.805z"></path>
<path d="M17.407 18.465c0 0.997-0.779 1.805-1.741 1.805s-1.741-0.808-1.741-1.805c0-0.997 0.779-1.805 1.741-1.805s1.741 0.808 1.741 1.805z"></path>
<path d="M9.573 28.39c0 0.997-0.779 1.805-1.741 1.805s-1.741-0.808-1.741-1.805c0-0.997 0.779-1.805 1.741-1.805s1.741 0.808 1.741 1.805z"></path>
<path d="M13.345 25.984c0 0.997-0.779 1.805-1.741 1.805s-1.741-0.808-1.741-1.805c0-0.997 0.779-1.805 1.741-1.805s1.741 0.808 1.741 1.805z"></path>
<path d="M17.696 23.277c0 0.997-0.779 1.805-1.741 1.805s-1.741-0.808-1.741-1.805c0-0.997 0.779-1.805 1.741-1.805s1.741 0.808 1.741 1.805z"></path>
<path d="M21.758 20.871c0 0.997-0.779 1.805-1.741 1.805s-1.741-0.808-1.741-1.805c0-0.997 0.779-1.805 1.741-1.805s1.741 0.808 1.741 1.805z"></path>
<path d="M14.504 29.895c0 0.997-0.779 1.805-1.741 1.805s-1.741-0.808-1.741-1.805c0-0.997 0.779-1.805 1.741-1.805s1.741 0.808 1.741 1.805z"></path>
<path d="M18.276 27.488c0 0.997-0.779 1.805-1.741 1.805s-1.741-0.808-1.741-1.805c0-0.997 0.779-1.805 1.741-1.805s1.741 0.808 1.741 1.805z"></path>
<path d="M22.629 24.781c0 0.997-0.779 1.805-1.741 1.805s-1.741-0.808-1.741-1.805c0-0.997 0.779-1.805 1.741-1.805s1.741 0.808 1.741 1.805z"></path>
<path d="M26.689 22.375c0 0.997-0.779 1.805-1.741 1.805s-1.741-0.808-1.741-1.805c0-0.997 0.779-1.805 1.741-1.805s1.741 0.808 1.741 1.805z"></path>
<path d="M20.888 30.196c0 0.997-0.779 1.805-1.741 1.805s-1.741-0.808-1.741-1.805c0-0.997 0.779-1.805 1.741-1.805s1.741 0.808 1.741 1.805z"></path>
<path d="M24.659 27.789c0 0.997-0.779 1.805-1.741 1.805s-1.741-0.808-1.741-1.805c0-0.997 0.779-1.805 1.741-1.805s1.741 0.808 1.741 1.805z"></path>
<path d="M29.011 25.082c0 0.997-0.779 1.805-1.741 1.805s-1.741-0.808-1.741-1.805c0-0.997 0.779-1.805 1.741-1.805s1.741 0.808 1.741 1.805z"></path>
<path d="M33.072 22.676c0 0.997-0.779 1.805-1.741 1.805s-1.741-0.808-1.741-1.805c0-0.997 0.779-1.805 1.741-1.805s1.741 0.808 1.741 1.805z"></path>
<path d="M28.431 30.195c0 0.997-0.779 1.805-1.741 1.805s-1.741-0.808-1.741-1.805c0-0.997 0.779-1.805 1.741-1.805s1.741 0.808 1.741 1.805z"></path>
<path d="M32.202 27.789c0 0.997-0.779 1.805-1.741 1.805s-1.741-0.808-1.741-1.805c0-0.997 0.779-1.805 1.741-1.805s1.741 0.808 1.741 1.805z"></path>
<path d="M36.554 25.082c0 0.997-0.779 1.805-1.741 1.805s-1.741-0.808-1.741-1.805c0-0.997 0.779-1.805 1.741-1.805s1.741 0.808 1.741 1.805z"></path>
<path d="M40.616 22.676c0 0.997-0.779 1.805-1.741 1.805s-1.741-0.808-1.741-1.805c0-0.997 0.779-1.805 1.741-1.805s1.741 0.808 1.741 1.805z"></path>
<path d="M34.812 29.895c0 0.997-0.779 1.805-1.741 1.805s-1.741-0.808-1.741-1.805c0-0.997 0.779-1.805 1.741-1.805s1.741 0.808 1.741 1.805z"></path>
<path d="M38.583 27.488c0 0.997-0.779 1.805-1.741 1.805s-1.741-0.808-1.741-1.805c0-0.997 0.779-1.805 1.741-1.805s1.741 0.808 1.741 1.805z"></path>
<path d="M42.936 24.781c0 0.997-0.779 1.805-1.741 1.805s-1.741-0.808-1.741-1.805c0-0.997 0.779-1.805 1.741-1.805s1.741 0.808 1.741 1.805z"></path>
<path d="M46.996 22.375c0 0.997-0.779 1.805-1.741 1.805s-1.741-0.808-1.741-1.805c0-0.997 0.779-1.805 1.741-1.805s1.741 0.808 1.741 1.805z"></path>
<path d="M42.064 29.594c0 0.997-0.779 1.805-1.741 1.805s-1.741-0.808-1.741-1.805c0-0.997 0.779-1.805 1.741-1.805s1.741 0.808 1.741 1.805z"></path>
<path d="M45.836 27.187c0 0.997-0.779 1.805-1.741 1.805s-1.741-0.808-1.741-1.805c0-0.997 0.779-1.805 1.741-1.805s1.741 0.808 1.741 1.805z"></path>
<path d="M50.188 24.481c0 0.997-0.779 1.805-1.741 1.805s-1.741-0.808-1.741-1.805c0-0.997 0.779-1.805 1.741-1.805s1.741 0.808 1.741 1.805z"></path>
<path d="M54.249 22.074c0 0.997-0.779 1.805-1.741 1.805s-1.741-0.808-1.741-1.805c0-0.997 0.779-1.805 1.741-1.805s1.741 0.808 1.741 1.805z"></path>
<path d="M48.737 21.773c0 0.997-0.779 1.805-1.741 1.805s-1.741-0.808-1.741-1.805c0-0.997 0.779-1.805 1.741-1.805s1.741 0.808 1.741 1.805z"></path>
<path d="M52.508 19.367c0 0.997-0.779 1.805-1.741 1.805s-1.741-0.808-1.741-1.805c0-0.997 0.779-1.805 1.741-1.805s1.741 0.808 1.741 1.805z"></path>
<path d="M56.86 16.66c0 0.997-0.779 1.805-1.741 1.805s-1.741-0.808-1.741-1.805c0-0.997 0.779-1.805 1.741-1.805s1.741 0.808 1.741 1.805z"></path>
<path d="M60.921 14.254c0 0.997-0.779 1.805-1.741 1.805s-1.741-0.808-1.741-1.805c0-0.997 0.779-1.805 1.741-1.805s1.741 0.808 1.741 1.805z"></path>
</symbol>
<symbol id="cow" viewBox="0 0 31 32">
<path d="M6.002 0.778c-0.254 0.219-0.979 1.733-1.24 2.559-0.31 1.024-0.416 1.791-0.373 2.852 0.056 1.514 0.437 2.661 1.275 3.861 0.218 0.314 0.394 0.585 0.394 0.607 0 0.015-0.134 0.029-0.303 0.029-0.726 0-2.085 0.241-3.128 0.556-1.655 0.497-2.627 1.367-2.627 2.34 0 0.344 0.31 0.929 0.641 1.228 0.641 0.578 2.043 1.126 3.55 1.389 0.521 0.095 2.071 0.256 2.416 0.263 0.063 0 0.085 0.336 0.085 1.44 0 0.951 0.035 1.689 0.106 2.142 0.254 1.623 1.043 3.341 2.085 4.555l0.359 0.417-0.24 0.387c-0.352 0.548-0.486 0.965-0.528 1.587-0.106 1.492 0.824 2.815 2.62 3.744 3.423 1.777 8.742 1.082 10.735-1.404 0.972-1.214 1.085-2.603 0.317-3.861l-0.239-0.388 0.43-0.519c0.803-0.965 1.324-1.93 1.719-3.151 0.331-1.038 0.458-2.040 0.458-3.627 0-0.724 0.021-1.323 0.056-1.323 0.324-0.007 1.881-0.175 2.374-0.263 1.515-0.263 2.888-0.804 3.55-1.389 0.331-0.3 0.641-0.885 0.641-1.228 0-1.082-1.099-1.96-3.142-2.486-0.669-0.175-1.93-0.387-2.543-0.424l-0.289-0.022 0.317-0.439c0.394-0.534 0.888-1.572 1.078-2.252 0.535-1.967 0.204-4.255-0.944-6.442-0.479-0.907-0.81-1.119-1.198-0.76-0.148 0.139-0.211 0.329-0.352 1.016-0.437 2.186-1.247 3.919-2.43 5.199l-0.521 0.57h-11.144l-0.465-0.505c-1.155-1.272-1.993-3.071-2.43-5.264-0.141-0.687-0.204-0.877-0.352-1.016-0.232-0.212-0.458-0.205-0.718 0.022zM6.903 5.114c0.373 0.819 0.838 1.587 1.388 2.296l0.437 0.563-0.458 0.344c-0.43 0.329-0.831 0.797-1.141 1.331l-0.134 0.241-0.338-0.461c-1.155-1.594-1.444-3.546-0.831-5.571 0.296-0.98 0.289-0.972 0.556-0.124 0.127 0.409 0.366 1.031 0.521 1.382zM25.239 3.571c0.289 0.87 0.402 1.565 0.402 2.464 0 1.331-0.352 2.457-1.092 3.466l-0.331 0.453-0.247-0.417c-0.289-0.512-0.782-1.046-1.233-1.353-0.19-0.124-0.338-0.249-0.338-0.263 0-0.022 0.134-0.19 0.303-0.373 0.782-0.87 1.62-2.435 2.036-3.78 0.127-0.417 0.254-0.76 0.275-0.76s0.127 0.256 0.225 0.563zM21.64 8.916c0.782 0.329 1.529 1.272 1.648 2.069 0.063 0.439 0.211 0.717 0.402 0.76 0.084 0.015 0.669 0.066 1.296 0.11 2.226 0.146 3.98 0.621 4.727 1.272 0.345 0.307 0.31 0.563-0.106 0.877-0.831 0.629-2.627 1.104-4.459 1.184-1.212 0.051-1.465 0.088-1.627 0.256-0.12 0.124-0.134 0.256-0.134 1.579 0 1.791-0.092 2.822-0.317 3.656-0.317 1.133-0.944 2.34-1.677 3.195l-0.303 0.351-0.627-0.373c-0.761-0.453-1.472-0.746-2.325-0.943-2.67-0.636-5.621-0.249-7.608 1.002l-0.458 0.293-0.289-0.344c-0.394-0.461-1.014-1.448-1.261-2.003-0.542-1.258-0.704-2.281-0.704-4.533 0-2.186 0.113-2.025-1.507-2.113-2.071-0.11-3.649-0.483-4.642-1.111-0.733-0.468-0.613-0.885 0.409-1.375 0.979-0.475 2.325-0.76 4.191-0.877 1.451-0.095 1.486-0.117 1.62-0.819 0.197-1.060 0.979-1.938 1.965-2.215 0.246-0.073 1.627-0.088 5.854-0.080l5.53 0.015 0.401 0.168zM17.681 24.051c1.726 0.424 3.015 1.214 3.571 2.193 0.134 0.227 0.19 0.461 0.218 0.819 0.028 0.446 0.007 0.556-0.162 0.921-0.782 1.66-3.656 2.756-6.579 2.508-3.515-0.293-5.826-2.252-4.917-4.175 0.493-1.038 2.163-2.033 3.924-2.325 0.289-0.044 0.578-0.095 0.634-0.11s0.69-0.015 1.409 0c0.979 0.022 1.451 0.066 1.902 0.168z"></path>
<path d="M10.693 12.579c-0.437 0.146-0.733 0.336-1.127 0.731-0.345 0.329-0.373 0.717-0.085 0.95 0.268 0.219 0.521 0.19 0.845-0.095 0.409-0.358 0.726-0.505 1.12-0.505 0.394-0.007 0.697 0.132 1.12 0.505 0.324 0.285 0.578 0.314 0.845 0.095 0.141-0.117 0.183-0.212 0.183-0.431 0-0.227-0.049-0.329-0.296-0.578-0.697-0.702-1.733-0.972-2.606-0.673z"></path>
<path d="M18.906 12.571c-0.451 0.168-1.029 0.548-1.261 0.833-0.225 0.278-0.232 0.592 0 0.826 0.232 0.249 0.514 0.234 0.852-0.044 0.831-0.687 1.451-0.709 2.219-0.073 0.197 0.168 0.423 0.3 0.493 0.3 0.345 0 0.627-0.307 0.627-0.673 0-0.234-0.585-0.775-1.113-1.031-0.585-0.285-1.282-0.336-1.817-0.139z"></path>
<path d="M11.714 26.106c-0.204 0.197-0.275 0.483-0.169 0.709 0.078 0.183 0.197 0.256 0.683 0.388 0.218 0.058 0.31 0.132 0.387 0.314 0.099 0.241 0.106 0.241 0.648 0.263l0.542 0.022v-0.205c-0.007-0.293-0.169-0.717-0.38-1.009-0.247-0.336-0.676-0.556-1.162-0.6-0.331-0.029-0.416-0.015-0.549 0.117z"></path>
<path d="M18.442 26.054c-0.352 0.095-0.859 0.57-1 0.943-0.063 0.168-0.127 0.468-0.134 0.665-0.014 0.314 0.014 0.388 0.183 0.541 0.416 0.366 0.965 0.080 0.965-0.504 0-0.285 0.211-0.483 0.585-0.556 0.394-0.073 0.535-0.234 0.542-0.607 0-0.49-0.437-0.68-1.141-0.483z"></path>
</symbol>
<symbol id="ice-crema" viewBox="0 0 32 32">
<path d="M16.108 0.107c0.080 0.214 0.241 1.252 0.241 1.573 0 0.797-0.295 1.54-0.837 2.122-0.449 0.482-0.897 0.75-1.975 1.185-1.198 0.489-1.694 0.783-2.256 1.339-0.569 0.569-0.904 1.192-1.024 1.921-0.134 0.797 0 1.359 0.408 1.68l0.208 0.161-0.328 0.208c-0.663 0.435-1.868 1.459-2.075 1.774-0.402 0.603-0.361 1.165 0.094 1.392l0.214 0.107-0.241 0.228c-0.361 0.341-0.435 0.576-0.382 1.192 0.033 0.408 0.020 0.629-0.074 0.964-0.114 0.435-0.114 0.442 0.033 0.75 0.147 0.301 0.562 0.683 0.937 0.843 0.181 0.080 0.187 0.107 0.228 0.723 0.020 0.355 0.053 1.486 0.080 2.517 0.020 1.031 0.067 1.975 0.107 2.089 0.033 0.121 0.161 0.281 0.274 0.361 0.388 0.268 0.656 0.556 0.83 0.89 0.194 0.382 0.408 1.319 1.058 4.559l0.455 2.276 0.281 0.268c0.536 0.529 1.56 0.77 3.247 0.77 1.694 0 2.705-0.234 3.24-0.763l0.288-0.274 0.415-2.109c0.917-4.613 0.997-4.867 1.714-5.436 0.221-0.181 0.435-0.402 0.475-0.502 0.047-0.114 0.094-0.991 0.127-2.316 0.027-1.178 0.067-2.343 0.094-2.591l0.040-0.449 0.435-0.328c0.549-0.422 0.763-0.803 0.763-1.393-0.007-0.696-0.462-1.459-1.292-2.142l-0.395-0.321 0.194-0.274c0.81-1.118 0.301-2.664-1.205-3.695l-0.455-0.315 0.167-0.174c0.743-0.797 0.864-3.173 0.241-4.827-0.375-0.984-1.232-2.055-2.283-2.845-0.515-0.388-1.935-1.245-2.062-1.245-0.027 0-0.027 0.047-0.007 0.107zM18.036 2.443c0.355 0.348 0.783 0.823 0.951 1.064 0.997 1.392 1.252 3.14 0.649 4.425-0.241 0.522-0.964 1.299-1.633 1.761-1.024 0.71-3.327 1.901-4.934 2.557-2.584 1.051-4.084 1.252-4.258 0.562-0.067-0.261 0.127-0.469 0.951-1.018 0.743-0.509 4.077-2.986 4.137-3.086 0.020-0.027-0.321 0.127-0.75 0.341-1.453 0.736-2.142 0.596-2.109-0.428 0.020-0.743 0.556-1.587 1.299-2.069 0.187-0.12 0.77-0.388 1.305-0.603 1.761-0.71 2.296-1.071 2.892-1.962 0.355-0.529 0.743-1.506 0.77-1.921 0.007-0.147 0.034-0.261 0.054-0.261s0.321 0.288 0.676 0.636zM19.864 10.049c0.489 0.274 0.997 0.743 1.218 1.111 0.388 0.663 0.187 1.325-0.649 2.169-0.91 0.924-2.464 1.808-4.171 2.37-1.573 0.515-3.079 0.756-5.235 0.83l-1.339 0.047 0.87 0.054c1.125 0.074 3.3 0.007 4.144-0.127 2.243-0.355 4.151-1.064 5.516-2.042 0.308-0.221 0.629-0.402 0.716-0.402 0.221 0 1.185 0.924 1.379 1.312 0.107 0.221 0.134 0.382 0.114 0.596-0.1 0.89-1.185 1.366-3.802 1.68-3.2 0.382-7.384 0.007-9.172-0.817-0.844-0.388-0.984-0.609-0.77-1.198 0.067-0.187 0.080-0.408 0.054-0.723-0.033-0.415-0.027-0.469 0.12-0.623 0.335-0.361 0.897-0.569 2.959-1.091 0.723-0.187 1.707-0.482 2.176-0.656 1.138-0.415 3.274-1.493 4.264-2.156 0.93-0.616 1.064-0.643 1.607-0.335zM10.974 18.243c1.406 0.408 2.651 0.529 4.967 0.482 1.741-0.034 2.812-0.141 4.358-0.415 0.315-0.053 0.589-0.1 0.623-0.1 0.074 0 0.053 2.571-0.027 3.247-0.087 0.716-0.281 1.272-0.489 1.406-0.214 0.141-1.285 0.288-2.718 0.368-2.939 0.161-5.958 0-6.895-0.375-0.509-0.207-0.562-0.475-0.569-2.959 0-1.654 0.013-1.881 0.1-1.848 0.053 0.020 0.348 0.107 0.649 0.194zM12.56 23.933c0.482 0.060 1.004 0.121 1.165 0.141l0.288 0.034-0.254 0.281c-0.328 0.355-0.83 1.064-1.011 1.426-0.207 0.415-0.274 0.442-0.582 0.274l-0.261-0.147-0.147-0.91c-0.080-0.495-0.167-0.971-0.187-1.051-0.060-0.174-0.12-0.174 0.991-0.047zM19.697 23.859c0 0.013-0.033 0.187-0.067 0.382-0.040 0.201-0.208 1.292-0.375 2.43-0.341 2.377-0.569 3.495-0.777 3.869-0.288 0.502-0.977 0.797-2.095 0.89-0.435 0.034-1.747-0.053-1.821-0.12-0.053-0.060 1.098-1.486 1.279-1.58 0.167-0.094 0.214-0.080 0.783 0.214 0.663 0.348 0.997 0.402 0.997 0.181s-0.174-0.435-0.602-0.73c-0.395-0.281-0.536-0.442-0.536-0.629 0-0.053 0.194-0.355 0.428-0.669s0.576-0.817 0.75-1.118l0.328-0.542 0.301 0.040c0.609 0.087 0.77 0.080 0.75-0.053-0.013-0.067-0.127-0.261-0.254-0.422-0.127-0.167-0.228-0.335-0.228-0.368 0-0.127 0.623-1.299 0.823-1.546 0.174-0.214 0.315-0.321 0.315-0.228zM15.513 24.395c0.335 0.221 1.593 1.312 1.674 1.446 0.034 0.060-1.259 2.082-1.513 2.37-0.027 0.034-0.167-0.033-0.308-0.141-0.141-0.114-0.663-0.475-1.165-0.803l-0.904-0.596 0.542-0.917c0.964-1.613 0.944-1.587 1.151-1.587 0.107 0 0.341 0.1 0.522 0.228zM18.050 24.636c-0.234 0.288-0.428 0.469-0.509 0.469-0.174 0-0.455-0.154-0.93-0.502l-0.395-0.288 0.79-0.047c0.428-0.020 0.844-0.047 0.917-0.060 0.536-0.087 0.536-0.080 0.127 0.428zM12.989 27.856c0.616 0.241 1.66 0.81 1.962 1.064 0.214 0.174 0.214 0.187 0.127 0.402-0.054 0.121-0.234 0.442-0.415 0.716-0.174 0.268-0.375 0.602-0.449 0.743-0.214 0.415-0.281 0.449-0.723 0.328-0.475-0.141-0.73-0.382-0.864-0.817-0.181-0.609-0.469-2.33-0.435-2.598 0.013-0.1 0.295-0.040 0.797 0.161z"></path>
</symbol>
<symbol id="weight" viewBox="0 0 32 32">
<path d="M14.177 0.547c-3.974 0.589-7.247 2.796-8.451 5.685-0.384 0.913-0.488 1.473-0.488 2.573 0.007 0.812 0.037 1.114 0.162 1.552 0.259 0.863 0.443 1.301 0.827 1.919l0.355 0.575-0.399 0.489c-3.154 3.924-3.502 9.444-0.872 13.793 0.982 1.632 2.585 3.234 4.152 4.169l0.465 0.273 12.743-0.108 0.303-0.165c1.056-0.597 2.549-1.926 3.383-3.004 1.256-1.639 2.076-3.551 2.423-5.621 0.118-0.74 0.118-2.932-0.007-3.63-0.377-2.149-1.182-3.989-2.453-5.621-0.244-0.309-0.436-0.568-0.436-0.589 0-0.014 0.133-0.237 0.288-0.489 0.362-0.575 0.687-1.315 0.864-1.962 0.199-0.719 0.199-2.516 0-3.234-0.709-2.552-2.837-4.679-5.843-5.851-0.842-0.331-2.283-0.683-3.213-0.798-0.864-0.101-2.999-0.079-3.804 0.043zM18.676 1.718c3.945 0.769 6.833 3.184 7.365 6.16 0.118 0.668 0.044 1.804-0.155 2.437-0.199 0.618-0.569 1.344-1.005 1.962-0.177 0.252-0.325 0.539-0.325 0.633s0.155 0.338 0.377 0.582c1.847 2.048 2.822 4.614 2.822 7.389-0.007 3.155-1.219 5.922-3.553 8.093-0.399 0.374-0.968 0.841-1.271 1.042l-0.554 0.374-12.211 0.050-0.473-0.302c-1.714-1.114-3.258-2.954-4.115-4.909-1.079-2.472-1.189-5.34-0.31-7.913 0.465-1.337 1.086-2.429 2.031-3.579 0.384-0.46 0.561-0.733 0.561-0.863 0-0.108-0.192-0.46-0.443-0.827-0.886-1.287-1.248-2.717-1.034-4.068 0.222-1.366 0.842-2.487 1.987-3.601 1.492-1.445 3.575-2.401 6.020-2.76 1.012-0.151 3.25-0.093 4.285 0.101z"></path>
<path d="M14.51 2.983c-3.029 0.496-5.4 2.178-6.176 4.384-0.177 0.496-0.207 0.69-0.207 1.402s0.030 0.906 0.207 1.402c0.111 0.316 0.318 0.755 0.458 0.977 0.384 0.618 0.554 0.64 1.315 0.18 1.138-0.697 2.445-1.208 3.804-1.488 0.916-0.187 2.674-0.259 3.671-0.144 1.559 0.18 3.25 0.74 4.602 1.538 0.384 0.223 0.776 0.41 0.872 0.41 0.561 0 1.278-1.617 1.278-2.875 0-2.796-2.674-5.189-6.464-5.786-0.805-0.129-2.585-0.129-3.361 0zM18.166 4.133c1.271 0.273 2.438 0.791 3.317 1.473 1.182 0.913 1.817 2.185 1.714 3.414-0.037 0.489-0.222 1.15-0.332 1.222-0.029 0.014-0.443-0.158-0.916-0.388-0.983-0.474-2.098-0.855-3.228-1.1-0.687-0.144-0.975-0.165-2.512-0.158-1.514 0-1.832 0.022-2.489 0.158-1.138 0.244-2.024 0.546-3.117 1.064-1.101 0.525-1.042 0.532-1.241-0.115-0.258-0.841-0.096-1.955 0.406-2.796 0.266-0.446 0.997-1.186 1.529-1.553 1.012-0.697 1.899-1.013 3.804-1.358 0.391-0.072 2.563 0.029 3.066 0.137z"></path>
<path d="M16.962 13.405c-0.207 0.259-0.207 0.503 0.007 0.712 0.14 0.137 0.281 0.173 0.79 0.208 0.99 0.072 1.935 0.359 2.785 0.848 0.606 0.359 1.529 1.229 1.943 1.854 0.613 0.898 1.034 2.185 1.034 3.134 0 0.331 0.029 0.431 0.185 0.575 0.236 0.237 0.547 0.237 0.776 0 0.163-0.165 0.17-0.208 0.125-0.913-0.207-3.479-3.184-6.382-6.744-6.577l-0.739-0.043-0.163 0.201z"></path>
</symbol>
</defs>
</svg>
